<svg width="300" height="53" viewBox="0 0 300 53" fill="none" xmlns="http://www.w3.org/2000/svg">
<path fill-rule="evenodd" clip-rule="evenodd" d="M251.762 47.3371C250.771 44.1383 251.762 40.1674 255.508 36.1966C260.577 30.9021 267.298 29.799 267.298 29.799C263.441 31.4536 260.246 35.5348 260.026 35.8657C268.289 32.4463 278.536 32.5566 281.511 36.0863C282.172 36.8584 282.503 37.7408 282.392 38.8438C288.012 33.1081 287.13 30.6815 281.511 26.2694C281.401 26.1591 281.18 26.0488 281.07 25.9385C281.07 25.9385 281.842 24.1736 280.74 22.7397C280.299 22.1882 277.765 20.0925 274.129 17.7761C268.84 14.467 261.128 10.6065 253.856 9.94466L257.161 12.5919C256.61 12.4816 242.948 8.84164 230.057 11.9301C229.506 12.0404 228.955 12.1507 228.404 12.3713C228.073 3.32653 229.285 0.127772 229.285 0.127772C236.337 -0.203134 242.838 0.127772 248.787 0.899887C279.528 4.76046 291.648 20.9749 295.724 25.8282C296.496 26.7106 308.064 45.4619 289.554 52.6316C280.079 38.6232 251.762 47.3371 251.762 47.3371Z" fill="url(#paint0_linear_817_281)"/>
<path d="M21.375 18.1069L25.672 41.2704H17.078L16.7474 38.954H9.5857L8.59408 41.2704H0L10.9079 18.1069H21.375ZM12.6708 32.1153H15.5354L14.7642 27.3723L12.6708 32.1153Z" fill="url(#paint1_linear_817_281)"/>
<path d="M51.0135 29.6887C50.0219 36.748 44.1823 41.2704 37.7919 41.2704H27.3247L30.6301 18.1069H41.0973C47.3775 18.1069 52.0051 22.7396 51.0135 29.6887ZM42.6398 29.6887C42.9703 27.4826 42.0889 25.2766 39.4446 25.2766H37.6817L36.4697 34.1007H38.2326C40.9871 34.211 42.3092 31.7844 42.6398 29.6887Z" fill="url(#paint2_linear_817_281)"/>
<path d="M62.8029 18.1069L60.4891 34.1007H68.2017L67.2101 41.2704H51.1238L54.4292 18.1069H62.8029Z" fill="url(#paint3_linear_817_281)"/>
<path d="M92.3311 18.1073L91.3395 25.1667H79.9909L79.8807 26.2697H87.1526L86.161 32.8878H78.8891L78.7789 33.9908H90.0173L89.0257 41.0502H69.4136L72.719 17.8867H92.3311V18.1073Z" fill="url(#paint4_linear_817_281)"/>
<path d="M102.137 36.6377H100.264L99.6032 41.2704H91.2295L94.5349 18.1069H107.316C112.384 18.1069 116.02 22.2984 115.249 27.3723C114.808 30.4608 112.935 33.108 110.511 34.7626L114.147 41.2704H105.112L102.137 36.6377ZM101.256 29.6887H103.68C104.892 29.6887 105.994 28.6959 106.214 27.4826C106.434 26.2693 105.553 25.2766 104.341 25.2766H101.917L101.256 29.6887Z" fill="url(#paint5_linear_817_281)"/>
<path d="M128.47 26.1592L127.479 33.2185H116.901L117.893 26.1592H128.47Z" fill="url(#paint6_linear_817_281)"/>
<path d="M152.6 18.1069L151.498 25.6075H145.438L143.235 41.2704H134.861L137.065 25.6075H131.005L132.106 18.1069H152.6Z" fill="url(#paint7_linear_817_281)"/>
<path d="M162.296 36.6377H160.423L159.762 41.2704H151.388L154.693 18.1069H167.474C172.543 18.1069 176.179 22.2984 175.407 27.3723C174.967 30.4608 173.093 33.108 170.67 34.7626L174.305 41.2704H165.271L162.296 36.6377ZM161.304 29.6887H163.728C164.94 29.6887 166.042 28.6959 166.262 27.4826C166.483 26.2693 165.601 25.2766 164.389 25.2766H161.965L161.304 29.6887Z" fill="url(#paint8_linear_817_281)"/>
<path d="M196.782 18.1069L201.079 41.2704H192.485L192.155 38.954H184.993L184.001 41.2704H175.407L186.315 18.1069H196.782ZM188.078 32.1153H190.943L190.171 27.4826L188.078 32.1153Z" fill="url(#paint9_linear_817_281)"/>
<path d="M227.523 18.1069L224.217 41.2704H215.954L212.318 32.6668L211.106 41.2704H202.732L206.037 18.2172V18.1069H214.411L218.047 26.6002L219.259 18.1069H227.523Z" fill="url(#paint10_linear_817_281)"/>
<path d="M239.753 24.2841C239.202 24.2841 238.541 24.5047 238.43 25.1665C238.43 25.1665 238.43 25.2768 238.43 25.3871C238.541 27.8138 250.44 25.6077 249.338 33.3289C248.677 37.9616 244.49 42.0427 237.329 42.0427C226.861 42.0427 227.302 33.5495 227.302 33.5495H236.668C236.557 34.4319 237.329 35.0937 238.1 35.0937C238.761 35.0937 239.532 34.8731 239.642 34.2113C239.642 34.101 239.642 33.9907 239.642 33.8804C239.422 31.8949 227.633 34.2113 228.845 26.0489C229.616 20.7544 234.684 17.5557 240.744 17.5557C246.694 17.5557 249.448 21.8574 249.669 25.8283H241.185C241.075 25.0562 240.634 24.2841 239.753 24.2841Z" fill="url(#paint11_linear_817_281)"/>
<defs>
<linearGradient id="paint0_linear_817_281" x1="264.206" y1="-0.203134" x2="264.206" y2="52.3" gradientUnits="userSpaceOnUse">
<stop stop-color="#46A55C"/>
<stop offset="1" stop-color="#0A7E3F"/>
</linearGradient>
<linearGradient id="paint1_linear_817_281" x1="12.8473" y1="21.0623" x2="12.8473" y2="40.3384" gradientUnits="userSpaceOnUse">
<stop stop-color="#0B5C8B"/>
<stop offset="1" stop-color="#064363"/>
</linearGradient>
<linearGradient id="paint2_linear_817_281" x1="39.2097" y1="21.0623" x2="39.2097" y2="40.3384" gradientUnits="userSpaceOnUse">
<stop stop-color="#0B5C8B"/>
<stop offset="1" stop-color="#064363"/>
</linearGradient>
<linearGradient id="paint3_linear_817_281" x1="59.632" y1="21.0623" x2="59.632" y2="40.3384" gradientUnits="userSpaceOnUse">
<stop stop-color="#0B5C8B"/>
<stop offset="1" stop-color="#064363"/>
</linearGradient>
<linearGradient id="paint4_linear_817_281" x1="80.8502" y1="21.0626" x2="80.8502" y2="40.3388" gradientUnits="userSpaceOnUse">
<stop stop-color="#0B5C8B"/>
<stop offset="1" stop-color="#064363"/>
</linearGradient>
<linearGradient id="paint5_linear_817_281" x1="103.278" y1="21.0623" x2="103.278" y2="40.3384" gradientUnits="userSpaceOnUse">
<stop stop-color="#0B5C8B"/>
<stop offset="1" stop-color="#064363"/>
</linearGradient>
<linearGradient id="paint6_linear_817_281" x1="122.702" y1="21.0624" x2="122.702" y2="40.3386" gradientUnits="userSpaceOnUse">
<stop stop-color="#0B5C8B"/>
<stop offset="1" stop-color="#064363"/>
</linearGradient>
<linearGradient id="paint7_linear_817_281" x1="141.818" y1="21.0623" x2="141.818" y2="40.3384" gradientUnits="userSpaceOnUse">
<stop stop-color="#0B5C8B"/>
<stop offset="1" stop-color="#064363"/>
</linearGradient>
<linearGradient id="paint8_linear_817_281" x1="163.352" y1="21.0623" x2="163.352" y2="40.3384" gradientUnits="userSpaceOnUse">
<stop stop-color="#0B5C8B"/>
<stop offset="1" stop-color="#064363"/>
</linearGradient>
<linearGradient id="paint9_linear_817_281" x1="188.2" y1="21.0623" x2="188.2" y2="40.3384" gradientUnits="userSpaceOnUse">
<stop stop-color="#0B5C8B"/>
<stop offset="1" stop-color="#064363"/>
</linearGradient>
<linearGradient id="paint10_linear_817_281" x1="215.112" y1="21.0623" x2="215.112" y2="40.3384" gradientUnits="userSpaceOnUse">
<stop stop-color="#0B5C8B"/>
<stop offset="1" stop-color="#064363"/>
</linearGradient>
<linearGradient id="paint11_linear_817_281" x1="238.402" y1="21.0625" x2="238.402" y2="40.3387" gradientUnits="userSpaceOnUse">
<stop stop-color="#0B5C8B"/>
<stop offset="1" stop-color="#064363"/>
</linearGradient>
</defs>
</svg>
