<svg width="100" height="29" viewBox="0 0 100 29" fill="none" xmlns="http://www.w3.org/2000/svg">
<g clip-path="url(#clip0_817_193)">
<path d="M28.5714 0H0V7.13592H28.5714V0Z" fill="white"/>
<path d="M21.4286 10.7041H0V17.84H21.4286V10.7041Z" fill="white"/>
<path d="M64.2856 0H46.4285V7.13592H64.2856V0Z" fill="white"/>
<path d="M57.1428 21.4079H46.4285V28.5438H64.2856V21.4475V21.3683V14.272H57.1428V21.4079Z" fill="white"/>
<path d="M28.5714 21.4077H0V28.5436H28.5714V21.4077Z" fill="white"/>
<path d="M78.5713 0H71.4285V28.5437H78.5713V0Z" fill="white"/>
<path d="M42.8572 0H35.7144V28.5437H42.8572V0Z" fill="white"/>
<path d="M100 0H92.8572V28.5437H100V0Z" fill="white"/>
<path d="M89.2857 7.13574H82.1428V28.5435H89.2857V7.13574Z" fill="white"/>
</g>
<defs>
<clipPath id="clip0_817_193">
<rect width="100" height="29" fill="white"/>
</clipPath>
</defs>
</svg>
