<svg width="18" height="26" viewBox="0 0 18 26" fill="none" xmlns="http://www.w3.org/2000/svg">
<path d="M6.77344 11.4766C7.39844 12.0625 8.14062 12.3555 9 12.3555C9.85938 12.3555 10.582 12.0625 11.168 11.4766C11.793 10.8516 12.1055 10.1094 12.1055 9.25C12.1055 8.39062 11.793 7.66797 11.168 7.08203C10.582 6.45703 9.85938 6.14453 9 6.14453C8.14062 6.14453 7.39844 6.45703 6.77344 7.08203C6.1875 7.66797 5.89453 8.39062 5.89453 9.25C5.89453 10.1094 6.1875 10.8516 6.77344 11.4766ZM2.78906 3.09766C4.50781 1.37891 6.57812 0.519531 9 0.519531C11.4219 0.519531 13.4727 1.37891 15.1523 3.09766C16.8711 4.77734 17.7305 6.82812 17.7305 9.25C17.7305 10.4609 17.418 11.8477 16.793 13.4102C16.207 14.9727 15.4844 16.4375 14.625 17.8047C13.7656 19.1719 12.9062 20.4609 12.0469 21.6719C11.2266 22.8438 10.5234 23.7812 9.9375 24.4844L9 25.4805C8.76562 25.207 8.45312 24.8555 8.0625 24.4258C7.67188 23.957 6.96875 23.0586 5.95312 21.7305C4.9375 20.3633 4.03906 19.0547 3.25781 17.8047C2.51562 16.5156 1.83203 15.0703 1.20703 13.4688C0.582031 11.8672 0.269531 10.4609 0.269531 9.25C0.269531 6.82812 1.10938 4.77734 2.78906 3.09766Z" fill="#0B5C8B"/>
</svg>
