<svg width="24" height="24" viewBox="0 0 24 24" fill="none" xmlns="http://www.w3.org/2000/svg">
<path d="M22.0195 16.2188C22.3711 16.2188 22.6641 16.3359 22.8984 16.5703C23.1328 16.8047 23.25 17.0977 23.25 17.4492V21.7852C23.25 22.7617 22.8398 23.25 22.0195 23.25C16.1992 23.25 11.1992 21.1602 7.01953 16.9805C2.83984 12.8008 0.75 7.80078 0.75 1.98047C0.75 1.16016 1.23828 0.75 2.21484 0.75H6.55078C6.90234 0.75 7.19531 0.867188 7.42969 1.10156C7.66406 1.33594 7.78125 1.62891 7.78125 1.98047C7.78125 3.50391 8.01562 4.96875 8.48438 6.375C8.64062 6.88281 8.54297 7.3125 8.19141 7.66406L5.78906 9.77344C7.58594 13.5234 10.457 16.3555 14.4023 18.2695L16.3359 15.8086C16.5703 15.5742 16.8633 15.457 17.2148 15.457C17.4102 15.457 17.5469 15.4766 17.625 15.5156C19.0312 15.9844 20.4961 16.2188 22.0195 16.2188Z" fill="#0B5C8B"/>
</svg>
