<svg xmlns="http://www.w3.org/2000/svg" xml:space="preserve" id="Layer" x="0" y="0" style="enable-background:new 0 0 407.1 222.6" version="1.1" viewBox="0 0 407.1 222.6"><style>.st2,.st3{opacity:.1;fill:#43687a}.st3{opacity:.2}.st4,.st5,.st6{opacity:.3;fill:#43687a}.st5,.st6{opacity:.4}.st6{opacity:.5}.st7{fill:#9dbbc9}.st8{fill:#709cb1}.st9{fill:#84aabb}.st10{fill:#3d5f6f}</style><g style="opacity:.2"><g style="opacity:.4"><path d="m84.5 62-9.3-28.7 8.2-14.6z" class="st2"/><path d="m64.2 79.2 6.3-1.9L57.9 39z" class="st3"/><path d="M106.8 12.1 95.8 28l-12-9.4z" class="st4"/><path d="m169.8 1.3-21.5 18.1-5.8-9.9z" class="st5"/><path d="M43.7 37.7 21.4 62.8l21.8-10.7z" class="st2"/><path d="m80.3 70.8-59-8 58.1-10.2z" class="st3"/><path d="m57.7 39.5-1.6 26 43.6-9.6zM26.6 15.1 44 18.7l-34.1 3z" class="st4"/><path d="m50.3 81.5-5.1 11.8-10.1 3.5zM64.3 92.9l4.4-4.3 7.3 7.8zM54.5 27.7l12.8-8.8-9.6 19.5zM105.7 147.5l-23.8-27.8-8.3 33.9z" class="st5"/><path d="m117.7 151-35.8-31.3 9.7 30.3zM89.2 213.3l8.3-53.5 7.5 1.9zM36.4 26.7l47-8-8.2 14.6z" class="st4"/><path d="M117.1 4.9 127 1l1.8 9.2z" class="st2"/><path d="M56.2 65.4 29.1 90.8l14.3-38.6z" class="st3"/><path d="M79.4 52.6 67.5 48l32.8-.2z" class="st4"/><path d="m81.3 159.7 2.1 20.2 8.8-10.1zM121.1 166.6l-15.4-19.1 6.1 25.7z" class="st5"/><path d="m58.9 95-1.8 7.1-27.7-11.2z" class="st2"/><path d="m174.7 84.6 11.2 18.5-31.3-7.1z" class="st4"/><path d="m174.1 41.4 7.1 16.3 1.6-11.8z" class="st5"/><path d="m220.3 47.5 7-6.8-23.8 10.5z" class="st3"/><path d="m206.9 150.4-1.1-24.4 30.3 31.3z" class="st2"/><path d="M215.9 105.8 205.8 126l42.2-22.1z" class="st5"/><path d="m220.7 61.5 14.4-6.4-1.9 20.4z" class="st4"/><path d="m200.9 42.2 2.6 9-8.2 11.2z" class="st3"/><path d="M351 27.7 240.9 36l17.2 6.3z" class="st2"/><path d="m321.6 95.2-18.9 4.5-11.1-25.2z" class="st5"/><path d="m190.8 32.9 36.5 7.8-9.5-14.6z" class="st3"/><path d="m210.7 31.6 7.1-5.5 2.5 21.4z" class="st2"/><path d="M181.4 57.2 166 66.5l10.7-.1z" class="st3"/><path d="m227.3 40.7-44.2 5.4 6.2 9.2z" class="st4"/><path d="m258.1 42.3-30.8-1.6 41.4 15.4z" class="st2"/><path d="m205.8 126-19.9-22.9 6.9-15.4z" class="st3"/><path d="m189.4 75.2 3.6 12.4-6.9 15.4z" class="st6"/><path d="m311.2 118.3 13.8-8.7-3.4-14.3z" class="st2"/><path d="m345.2 170.9 27 17.6-4-15.3z" class="st4"/><path d="m307.8 121.3 8.4 16.9 5.8-4z" class="st6"/><path d="m241.1 36 46.5-5.9 21.2 9z" class="st4"/><path d="m189.2 55.5-8 1.9 8.5-16.8zM227.3 40.7l-16.6-9.1-9.8 10.6z" class="st2"/><path d="m220.3 55.7 4.5-4.3-9.3 1z" class="st3"/><path d="m275.1 101 7.4 14.4 9.1-41.2z" class="st4"/><path d="m212 90.8 3.4 14.9-16.5 3.4z" class="st2"/></g><path d="m22.4 73.9 21.2-22.4-3.7 14.8-17.5 7.6zm20.4-21.1L24 72.7l15.5-6.8 3.3-13.1z" class="st7"/><path d="m30.3 82.8-7.6-9.7 35.1-8.4-27.5 18.1zm-6.6-9.3 6.7 8.6 24.2-15.9-30.9 7.3z" class="st7"/><path d="m23.2 74.2-2.3-11.6v-.1L30 45.2l-6.8 29zm-1.9-11.5 1.9 9.7 5.7-24.1-7.6 14.4zM50.3 82.2l-7.5-30.7 14 13.9-6.5 16.8zm-6.8-29.4 6.8 28.1 6-15.4-12.8-12.7z" class="st7"/><path d="m20.6 63.4 23.3-26.3-.5 15.1-22.8 11.2zm22.9-25.2-21.3 24L43 52l.5-13.8z" class="st7"/><path d="M40.1 67.5 29.2 46.7l7.4-21.8 3.5 42.6zM29.8 46.7l9.4 17.9-3-36.8-6.4 18.9zM42.5 52.5l15.4-13.7 9.8 8.7-25.2 5zm15.4-13.2-14 12.5 23-4.5-9-8z" class="st7"/><path d="M80.4 71.1 40.7 51.2l43.9 10.5-4.2 9.4zM45.6 53 80 70.3l3.7-8.1L45.6 53z" class="st7"/><path d="m70.5 77.6-15-12.3 24.2-13.1-9.2 25.4zM56.3 65.3l14.1 11.6L79 53 56.3 65.3zM66.8 47.8l8.4-15.3 8.8 7.1-17.2 8.2zm8.5-14.7-7.6 13.8 15.5-7.4-7.9-6.4zM30 82.6l9.7-17 11 16-20.7 1zm9.7-16.2-9 15.8 19.3-.9-10.3-14.9zM43.9 38.3l-7.7-12 8-8.2-.3 20.2zm-7.2-11.9L43.5 37l.2-17.8-7 7.2z" class="st7"/><path d="M43.2 52.7 27 32.7l28.4-4.6-12.2 24.6zm-15-19.6 14.9 18.5 11.3-22.7-26.2 4.2z" class="st7"/><path d="M44.2 38 16 30.4l10.7-15.6L44.2 38zm-27.6-7.9 26.6 7.2-16.6-21.8-10 14.6z" class="st7"/><path d="m57.9 38.6-14.6-.8 12.1-21 2.5 21.8zM44 37.5l13.4.7-2.3-20.1L44 37.5zM75.7 35.3l-8.8-16.4 3.8-9.7 5 26.1zm-8.1-16.4 6.8 12.7-3.8-20.2-3 7.5z" class="st7"/><path d="M84.2 18.7 59.3 14l11.4-3.9.1.1 13.4 8.5zm-23.3-4.8 21.3 4-11.6-7.4-9.7 3.4zM57.7 39l-3.4-11.4 13.5-9.3L57.7 39zm-2.9-11.3 3 10.1 9-18.4-12 8.3z" class="st7"/><path d="M67.6 49 55.4 16.6l12.7 2.9v.2L67.6 49zM56 17.2l11.2 29.7.4-27.1L56 17.2zM8.6 22l18.1-7.1h.1l18.7 3.9L8.6 22zm18.1-6.7-15.4 6 31.3-2.7-15.9-3.3zM1.3 36.5 3 26.6l13.9 3.6-15.6 6.3zm2-9.4-1.5 8.8 13.8-5.6-12.3-3.2z" class="st7"/><path d="m2.5 27.1 7.3-5.6h.1l26.5 4.7v.4l-33.9.5zm7.5-5.2-6.2 4.8 30.6-.4L10 21.9zM54.7 28.1l-11.2-9.5 12.4-1.9-1.2 11.4zm-10.3-9.3 9.9 8.4 1.1-10.1-11 1.7zM83.1 39.8l12.8-12.2 3.7 11.9-16.5.3zm12.6-11.5L84.1 39.4l15-.3-3.4-10.8zM67.9 19.9l-.1-.4 34.4-16-8.3 9.2h-.1l-25.9 7.2zm32.7-15.2L70.1 18.9l23.6-6.5 6.9-7.7z" class="st7"/><path d="m93.4 12.8 8.1-9 5.7 8.5-13.8.5zm8-8.3-7.1 7.9 12.1-.4-5-7.5z" class="st7"/><path d="m92.5 12.8 24.9-8.6-10.6 8.1h-.1l-14.2.5zm22.7-7.4-20.1 7 11.5-.4 8.6-6.6z" class="st7"/><path d="m116.4 5-15-.7v-.4L128.8.6 116.4 5zm-12.6-1 12.5.6 9-3.2L103.8 4z" class="st7"/><path d="m83.2 18.5-.1-.1-13-8.2 32.1-6.5-19 14.8zm-12-8.1 12 7.6 17.4-13.6-29.4 6z" class="st7"/><path d="m74.3 34.2 8.5-15.5 12.1-6.9-20.6 22.4zM83.1 19l-6.9 12.5 16.6-18.1-9.7 5.6z" class="st7"/><path d="m95.9 28.3-12.5-9.7 23.9-6.7-11.4 16.4zm-11.7-9.6 11.6 9 10.5-15.2-22.1 6.2z" class="st7"/><path d="m95.7 28.2-2.1-15.9 23.1 8.3-21 7.6zm-1.6-15.3L96 27.7l19.5-7.1-21.4-7.7z" class="st7"/><path d="m108.6 32.6-2.4-20.5 10.4 8.4-8 12.1zm-1.7-19.1 2 17.4 6.8-10.2-8.8-7.2z" class="st7"/><path d="m109.2 32.6-15.6-20 7.9-8.9 7.7 28.9zm-15.1-20 14.2 18.3-7-26.3-7.2 8zM114.6 41.6l-15.4-2.1-3.8-12.1 19.2 14.2zm-15-2.5 13.6 1.9-17-12.5 3.4 10.6z" class="st7"/><path d="m109.1 49.7-9-1.7-1-9.2 10 10.9zm-8.6-2.1L108 49l-8.3-9.1.8 7.7zM84.6 61.6 79 52.3l21.6 3.4-16 5.9zm-4.8-8.8 5 8.3 14.3-5.2-19.3-3.1z" class="st7"/><path d="M100 56.3 82.8 39.6l17.7 8.1-.5 8.6zM84.8 40.9l14.9 14.5.4-7.4-15.3-7.1z" class="st7"/><path d="m54.5 66.3 29.7-26.7-4.7 13.2h-.1L54.5 66.3zm28.9-25.4L57.3 64.3l22-11.9 4.1-11.5z" class="st7"/><path d="m79.4 52.8-13-5 35.7-.2-22.7 5.2zm-10.9-4.6 10.9 4.2L98.5 48l-30 .2z" class="st7"/><path d="M84.9 62.7 66.7 47.1l17-7.8 1.2 23.4zM67.5 47.2l17 14.6-1.1-21.9-15.9 7.3z" class="st7"/><path d="m70.2 77.8-3.3-31.4 13.7 24.4-10.4 7zm-2.4-28.6 2.9 27.5 9.1-6.1-12-21.4z" class="st7"/><path d="M64 79.5 57.7 39l.4-.1 12.6 38.4-6.7 2.2zm-5.5-38.1 5.9 37.5 5.8-1.8-11.7-35.7z" class="st7"/><path d="m68.3 89.8-4.4-10.7 6.8-2.1-2.4 12.8zm-3.8-10.5 3.7 9 2-10.8-5.7 1.8zM34.3 97.2l16.6-16.6-5.6 12.9-11 3.7zm15.4-14.8L35.8 96.3l9.2-3.1 4.7-10.8zM29.3 91.5l-6.7-19.3 7.9 10.2-1.2 9.1zm-5.5-17.2 5.4 15.5 1-7.3-6.4-8.2z" class="st7"/><path d="m34.9 97-5-15.1 15.7 11.5L34.9 97zm-4.2-14.1 4.5 13.6 9.5-3.3-14-10.3z" class="st7"/><path d="m47.6 102.7-13-6L45.4 93l2.2 9.7zm-12-5.9L47 102l-2-8.4-9.4 3.2z" class="st7"/><path d="m46.6 102.6 12.7-8.4-2 7.8-10.7.6zm12-7.5-10.6 7 8.9-.5 1.7-6.5z" class="st7"/><path d="m60.6 114-3.8-12.5 6.1 2.6-2.3 9.9zm-3.2-11.8 3.1 10.3 1.9-8.1-5-2.2z" class="st7"/><path d="m61.8 114.5-14.7-12-2.4-10 17.1 22zm-14.3-12.3 11.9 9.7-13.8-17.7 1.9 8z" class="st7"/><path d="m69.1 115.7-8.7-2.3v-.1L56.7 101l12.4 14.7zm-8.4-2.6L68 115l-10.4-12.3 3.1 10.4zM50 81.8l6-16.2 8.5 13.8L50 81.8zm6.1-15.4-5.4 14.8L63.9 79l-7.8-12.6zM142.4 10.9 125.9.7l22.8.5-6.3 9.7zm-14.3-9.6 14.1 8.7 5.4-8.3-19.5-.4z" class="st7"/><path d="m129.1 10.5-12.5-5.7L127.2.7l1.9 9.8zm-11.5-5.6 10.9 5-1.7-8.6-9.2 3.6z" class="st7"/><path d="m125.3 21.8 3.4-11.8h.1l14.5-.6-18 12.4zm3.7-11.4-3 10.5 16-11-13 .5z" class="st7"/><path d="m132.2 31-7.1-9.9 13 2.5-5.9 7.4zm-6.1-9.3 6.2 8.7 5.2-6.4-11.4-2.3z" class="st7"/><path d="m137.5 24.1 5.1-14.9 5.9 9.6-11 5.3zm5.2-14-4.5 13.2 9.7-4.7-5.2-8.5zM163.4 11.8 147.6 1.3l22.8-.6-7 11.1zM148.8 1.6l14.4 9.6 6.3-10.1-20.7.5z" class="st7"/><path d="m148.1 19.1-6-9.8 22.1 1.1-16.1 8.7zm-4.9-9.1 5.1 8.3L162 11l-18.8-1z" class="st7"/><path d="m137.4 24.3 5-14.8h.1L171.1.3l-33.7 24zm5.4-14.5-4.5 13.4 30.6-21.7-26.1 8.3zM29.4 47.5 27 33.1l9.6-6.8-7.2 21.2zm-2-14.2 2.2 12.6 6.3-18.6-8.5 6zM2.7 36c0 .7-.6 1.3-1.3 1.3S0 36.7 0 36c0-.7.6-1.3 1.3-1.3s1.4.5 1.4 1.3zM4.6 27.2c0 .7-.6 1.3-1.3 1.3S2 27.9 2 27.2c0-.7.6-1.3 1.3-1.3s1.3.6 1.3 1.3zM17.6 30.7c0 .7-.6 1.3-1.3 1.3-.7 0-1.3-.6-1.3-1.3 0-.7.6-1.3 1.3-1.3.7-.1 1.3.5 1.3 1.3z" class="st7"/><circle cx="27.4" cy="33" r="1.3" class="st7"/><path d="M30.8 46.6c0 .7-.6 1.3-1.3 1.3-.7 0-1.3-.6-1.3-1.3 0-.7.6-1.3 1.3-1.3.7-.1 1.3.5 1.3 1.3z" class="st8"/><path d="M45.2 37.8c0 .7-.6 1.3-1.3 1.3s-1.3-.6-1.3-1.3c0-.7.6-1.3 1.3-1.3s1.3.6 1.3 1.3zM76.5 33.3c0 .7-.6 1.3-1.3 1.3-.7 0-1.3-.6-1.3-1.3 0-.7.6-1.3 1.3-1.3.7 0 1.3.6 1.3 1.3z" class="st7"/><circle cx="83.8" cy="39.7" r="1.3" class="st7"/><path d="M97.4 28.3c0 .7-.6 1.3-1.3 1.3-.7 0-1.3-.6-1.3-1.3 0-.7.6-1.3 1.3-1.3.7-.1 1.3.5 1.3 1.3zM56.3 28.1c0 .7-.6 1.3-1.3 1.3-.7 0-1.3-.6-1.3-1.3s.6-1.3 1.3-1.3c.7-.1 1.3.5 1.3 1.3zM68.4 47.6c0 .7-.6 1.3-1.3 1.3-.7 0-1.3-.6-1.3-1.3 0-.7.6-1.3 1.3-1.3.7-.1 1.3.5 1.3 1.3zM44.7 52.2c0 .7-.6 1.3-1.3 1.3-.7 0-1.3-.6-1.3-1.3 0-.7.6-1.3 1.3-1.3.7-.1 1.3.5 1.3 1.3zM41.1 66.1c0 .7-.6 1.3-1.3 1.3-.7 0-1.3-.6-1.3-1.3 0-.7.6-1.3 1.3-1.3.7 0 1.3.6 1.3 1.3z" class="st7"/><circle cx="56.1" cy="65.5" r="1.3" class="st7"/><path d="M101.1 55.9c0 .7-.6 1.3-1.3 1.3-.7 0-1.3-.6-1.3-1.3 0-.7.6-1.3 1.3-1.3.7 0 1.3.6 1.3 1.3zM101.7 48c0 .7-.6 1.3-1.3 1.3S99 48.7 99 48c0-.7.6-1.3 1.3-1.3s1.4.5 1.4 1.3zM109.4 49.8c0 .7-.6 1.3-1.3 1.3-.7 0-1.3-.6-1.3-1.3 0-.7.6-1.3 1.3-1.3.7-.1 1.3.5 1.3 1.3zM115.3 41.6c0 .7-.6 1.3-1.3 1.3-.7 0-1.3-.6-1.3-1.3s.6-1.3 1.3-1.3c.7-.1 1.3.5 1.3 1.3zM109.9 31.3c0 .7-.6 1.3-1.3 1.3-.7 0-1.3-.6-1.3-1.3 0-.7.6-1.3 1.3-1.3.7 0 1.3.6 1.3 1.3zM100.9 39.6c0 .7-.6 1.3-1.3 1.3-.7 0-1.3-.6-1.3-1.3 0-.7.6-1.3 1.3-1.3.7 0 1.3.6 1.3 1.3zM59.3 38.8c0 .7-.6 1.3-1.3 1.3-.7 0-1.3-.6-1.3-1.3 0-.7.6-1.3 1.3-1.3.7 0 1.3.6 1.3 1.3zM80.8 52.6c0 .7-.6 1.3-1.3 1.3-.7 0-1.3-.6-1.3-1.3 0-.7.6-1.3 1.3-1.3.7-.1 1.3.5 1.3 1.3z" class="st7"/><circle cx="36.4" cy="26.7" r="1.3" class="st7"/><path d="M11.5 22.2c0 .7-.6 1.3-1.3 1.3-.7 0-1.3-.6-1.3-1.3 0-.7.6-1.3 1.3-1.3.7-.1 1.3.5 1.3 1.3zM27.9 15.5c0 .7-.6 1.3-1.3 1.3-.7 0-1.3-.6-1.3-1.3 0-.7.6-1.3 1.3-1.3.7 0 1.3.6 1.3 1.3zM45.4 19c0 .7-.6 1.3-1.3 1.3-.7 0-1.3-.6-1.3-1.3 0-.7.6-1.3 1.3-1.3.7-.1 1.3.5 1.3 1.3zM57.1 17.1c0 .7-.6 1.3-1.3 1.3-.7 0-1.3-.6-1.3-1.3 0-.7.6-1.3 1.3-1.3.7 0 1.3.6 1.3 1.3z" class="st7"/><path d="M69.1 19.5c0 .7-.6 1.3-1.3 1.3-.7 0-1.3-.6-1.3-1.3 0-.7.6-1.3 1.3-1.3.7 0 1.3.6 1.3 1.3z" class="st8"/><path d="M61.9 13.9c0 .7-.6 1.3-1.3 1.3-.7 0-1.3-.6-1.3-1.3s.6-1.3 1.3-1.3c.7 0 1.3.6 1.3 1.3zM72 10.7c0 .7-.6 1.3-1.3 1.3-.7 0-1.3-.6-1.3-1.3s.6-1.3 1.3-1.3c.7 0 1.3.6 1.3 1.3zM84.7 18.7c0 .7-.6 1.3-1.3 1.3s-1.4-.6-1.4-1.3c0-.7.6-1.3 1.3-1.3s1.4.6 1.4 1.3zM95.5 12.5c0 .7-.6 1.3-1.3 1.3-.7 0-1.3-.6-1.3-1.3s.6-1.3 1.3-1.3c.7 0 1.3.6 1.3 1.3z" class="st7"/><path d="M108.1 12.6c0 .7-.6 1.3-1.3 1.3-.7 0-1.3-.6-1.3-1.3 0-.7.6-1.3 1.3-1.3.7-.1 1.3.5 1.3 1.3z" class="st8"/><circle cx="116.3" cy="20.9" r="1.3" class="st7"/><path d="M102.7 4.6c0 .7-.6 1.3-1.3 1.3-.7 0-1.3-.6-1.3-1.3 0-.7.6-1.3 1.3-1.3.7-.1 1.3.5 1.3 1.3zM128.4 1.4c0 .7-.6 1.3-1.3 1.3-.7 0-1.3-.6-1.3-1.3 0-.7.6-1.3 1.3-1.3.7-.1 1.3.5 1.3 1.3zM118.2 5c0 .7-.6 1.3-1.3 1.3-.7 0-1.3-.6-1.3-1.3 0-.7.6-1.3 1.3-1.3.7-.1 1.3.5 1.3 1.3zM130.3 10.3c0 .7-.6 1.3-1.3 1.3-.7 0-1.3-.6-1.3-1.3 0-.7.6-1.3 1.3-1.3.7 0 1.3.6 1.3 1.3zM126.9 21.6c0 .7-.6 1.3-1.3 1.3-.7 0-1.3-.6-1.3-1.3 0-.7.6-1.3 1.3-1.3.7-.1 1.3.5 1.3 1.3z" class="st7"/><path d="M133.5 31.2c0 .7-.6 1.3-1.3 1.3s-1.3-.6-1.3-1.3c0-.7.6-1.3 1.3-1.3s1.3.5 1.3 1.3z" class="st8"/><path d="M139.5 24.1c0 .7-.6 1.3-1.3 1.3-.7 0-1.3-.6-1.3-1.3s.6-1.3 1.3-1.3c.7-.1 1.3.5 1.3 1.3zM149.7 19.3c0 .7-.6 1.3-1.3 1.3-.7 0-1.3-.6-1.3-1.3 0-.7.6-1.3 1.3-1.3.7 0 1.3.6 1.3 1.3z" class="st7"/><circle cx="163.3" cy="11.1" r="1.3" class="st7"/><path d="M171.2 1.3c0 .7-.6 1.3-1.3 1.3-.7 0-1.3-.6-1.3-1.3 0-.7.6-1.3 1.3-1.3.7 0 1.3.6 1.3 1.3zM149.5 1.6c0 .7-.6 1.3-1.3 1.3-.7 0-1.3-.6-1.3-1.3s.6-1.3 1.3-1.3c.7-.1 1.3.5 1.3 1.3zM144.1 9.9c0 .7-.6 1.3-1.3 1.3s-1.3-.6-1.3-1.3c0-.7.6-1.3 1.3-1.3s1.3.6 1.3 1.3zM22.6 62.8c0 .7-.6 1.3-1.3 1.3-.7 0-1.3-.6-1.3-1.3s.6-1.3 1.3-1.3c.7-.1 1.3.5 1.3 1.3zM24.7 73.4c0 .7-.6 1.3-1.3 1.3-.7 0-1.3-.6-1.3-1.3 0-.7.6-1.3 1.3-1.3.7 0 1.3.6 1.3 1.3z" class="st7"/><circle cx="29.2" cy="90.7" r="1.3" class="st7"/><circle cx="30.3" cy="82.4" r="1.3" class="st7"/><circle cx="35.3" cy="96.8" r="1.3" class="st7"/><path d="M48.6 102.3c0 .7-.6 1.3-1.3 1.3-.7 0-1.3-.6-1.3-1.3 0-.7.6-1.3 1.3-1.3.7 0 1.3.6 1.3 1.3z" class="st7"/><circle cx="59.1" cy="95" r="1.3" class="st7"/><path d="M58.7 101.9c0 .7-.6 1.3-1.3 1.3-.7 0-1.3-.6-1.3-1.3 0-.7.6-1.3 1.3-1.3.7 0 1.3.6 1.3 1.3zM64.4 104.5c0 .7-.6 1.3-1.3 1.3-.7 0-1.3-.6-1.3-1.3 0-.7.6-1.3 1.3-1.3.7 0 1.3.6 1.3 1.3zM61.6 113.3c0 .7-.6 1.3-1.3 1.3-.7 0-1.3-.6-1.3-1.3 0-.7.6-1.3 1.3-1.3.7-.1 1.3.6 1.3 1.3zM69.8 115.7c0 .7-.6 1.3-1.3 1.3-.7 0-1.3-.6-1.3-1.3 0-.7.6-1.3 1.3-1.3.7-.1 1.3.5 1.3 1.3zM46.8 93.1c0 .7-.6 1.3-1.3 1.3-.7 0-1.3-.6-1.3-1.3 0-.7.6-1.3 1.3-1.3.7-.1 1.3.5 1.3 1.3zM51.8 81.6c0 .7-.6 1.3-1.3 1.3-.7 0-1.3-.6-1.3-1.3 0-.7.6-1.3 1.3-1.3.7 0 1.3.6 1.3 1.3z" class="st7"/><circle cx="64" cy="79.2" r="1.3" class="st7"/><circle cx="68.5" cy="88.5" r="1.3" class="st7"/><circle cx="70.4" cy="77.4" r="1.3" class="st7"/><path d="M81.6 70.7c0 .7-.6 1.3-1.3 1.3s-1.3-.6-1.3-1.3.6-1.3 1.3-1.3 1.3.6 1.3 1.3z" class="st7"/><circle cx="84.5" cy="62" r="1.3" class="st7"/><path d="M17.6 30.7c0 .7-.6 1.3-1.3 1.3-.7 0-1.3-.6-1.3-1.3 0-.7.6-1.3 1.3-1.3.7-.1 1.3.5 1.3 1.3zM45.2 37.8c0 .7-.6 1.3-1.3 1.3s-1.3-.6-1.3-1.3c0-.7.6-1.3 1.3-1.3s1.3.6 1.3 1.3z" class="st9"/><circle cx="83.8" cy="39.7" r="1.3" class="st9"/><path d="M97.4 28.3c0 .7-.6 1.3-1.3 1.3-.7 0-1.3-.6-1.3-1.3 0-.7.6-1.3 1.3-1.3.7-.1 1.3.5 1.3 1.3zM44.7 52.2c0 .7-.6 1.3-1.3 1.3-.7 0-1.3-.6-1.3-1.3 0-.7.6-1.3 1.3-1.3.7-.1 1.3.5 1.3 1.3z" class="st9"/><circle cx="56.1" cy="65.5" r="1.3" class="st9"/><path d="M115.3 41.6c0 .7-.6 1.3-1.3 1.3-.7 0-1.3-.6-1.3-1.3s.6-1.3 1.3-1.3c.7-.1 1.3.5 1.3 1.3zM109.9 31.3c0 .7-.6 1.3-1.3 1.3-.7 0-1.3-.6-1.3-1.3 0-.7.6-1.3 1.3-1.3.7 0 1.3.6 1.3 1.3zM59.3 38.8c0 .7-.6 1.3-1.3 1.3-.7 0-1.3-.6-1.3-1.3 0-.7.6-1.3 1.3-1.3.7 0 1.3.6 1.3 1.3zM45.4 19c0 .7-.6 1.3-1.3 1.3-.7 0-1.3-.6-1.3-1.3 0-.7.6-1.3 1.3-1.3.7-.1 1.3.5 1.3 1.3zM72 10.7c0 .7-.6 1.3-1.3 1.3-.7 0-1.3-.6-1.3-1.3s.6-1.3 1.3-1.3c.7 0 1.3.6 1.3 1.3zM84.7 18.7c0 .7-.6 1.3-1.3 1.3s-1.4-.6-1.4-1.3c0-.7.6-1.3 1.3-1.3s1.4.6 1.4 1.3zM130.3 10.3c0 .7-.6 1.3-1.3 1.3-.7 0-1.3-.6-1.3-1.3 0-.7.6-1.3 1.3-1.3.7 0 1.3.6 1.3 1.3zM149.7 19.3c0 .7-.6 1.3-1.3 1.3-.7 0-1.3-.6-1.3-1.3 0-.7.6-1.3 1.3-1.3.7 0 1.3.6 1.3 1.3zM171.2 1.3c0 .7-.6 1.3-1.3 1.3-.7 0-1.3-.6-1.3-1.3 0-.7.6-1.3 1.3-1.3.7 0 1.3.6 1.3 1.3zM144.1 9.9c0 .7-.6 1.3-1.3 1.3s-1.3-.6-1.3-1.3c0-.7.6-1.3 1.3-1.3s1.3.6 1.3 1.3z" class="st9"/><circle cx="29.2" cy="90.7" r="1.3" class="st9"/><circle cx="30.3" cy="82.4" r="1.3" class="st9"/><circle cx="59.1" cy="95" r="1.3" class="st9"/><path d="M58.7 101.9c0 .7-.6 1.3-1.3 1.3-.7 0-1.3-.6-1.3-1.3 0-.7.6-1.3 1.3-1.3.7 0 1.3.6 1.3 1.3zM51.8 81.6c0 .7-.6 1.3-1.3 1.3-.7 0-1.3-.6-1.3-1.3 0-.7.6-1.3 1.3-1.3.7 0 1.3.6 1.3 1.3zM81.6 70.7c0 .7-.6 1.3-1.3 1.3s-1.3-.6-1.3-1.3.6-1.3 1.3-1.3 1.3.6 1.3 1.3zM58.2 39l-.3-.1-42.1-8.2 28.3-11.9.1.1 14 20.1zm-41.6-8.4 41 8-13.5-19.5-27.5 11.5z" class="st9"/><path d="M56.1 65.6 43.3 52.3 58 38.5l-1.9 27.1zM43.6 52.3 55.9 65l1.8-25.9-14.1 13.2z" class="st9"/><path d="m80.9 71.1-.4-.1-24.1-5.2v-.1L43.5 37.2l.4.4 37 33.5zm-24.4-5.5L80 70.7 44.2 38.2l12.3 27.4zM83.8 39.6l-.5-20.8L109 31.4l-25.2 8.2zm-.3-20.4.5 20.1 24.3-8-24.8-12.1z" class="st9"/><path d="M114.8 42 95.4 27.9l13.3 3.4 6.1 10.7zM96.6 28.4l17.5 12.7-5.5-9.7-12-3z" class="st9"/><path d="M84 40.2 70.5 10.3l.4.2 25.3 17.6-.1.1-12.1 12zM71.1 11l13 28.8 11.7-11.6L71.1 11z" class="st9"/><path d="m56.5 39.5 26.7-21 13.4 9.8-40.1 11.2zm26.8-20.3-24 18.9 36-10.1-12-8.8zM148.3 19.5l-6-10.1h.1L170.3 1l-22 18.5zm-5.6-9.9 5.7 9.6 21-17.6-26.7 8zM57.1 102.2 28.4 90.6 59 94.9l-1.9 7.3zM30.3 91.1 57 101.9l1.7-6.8-28.4-4z" class="st9"/><path d="m29.1 90.9 1.1-8.5h.1l20.8-.8-22 9.3zm1.3-8.4-1 7.9 20.5-8.7-19.5.8z" class="st9"/><path d="m28.8 91.2 14.5-39.3.1.1 12.9 13.3-27.5 25.9zm14.6-38.8-14 38 26.6-25-12.6-13z" class="st9"/><path d="m69.7 124.3 1.7-8.6h.1l7.4-6.5h.1l11.3 3.2-20.6 11.9zm2.1-8.4-1.5 7.6 19-11-10.3-2.9-7.2 6.3z" class="st7"/><path d="M82.2 120.1 71.3 116l7.7-7 3.2 11.1zm-10.1-4.3 9.5 3.6-2.9-9.7-6.6 6.1z" class="st7"/><path d="m78.2 131.4-8.6-7.7 12.7-4.2-4.1 11.9zm-7.8-7.6 7.6 6.9 3.6-10.6-11.2 3.7z" class="st7"/><path d="m98.2 120.5-16.8-.6 8.3-7.8 8.5 8.4zm-15.8-.9 14.8.5-7.5-7.3-7.3 6.8z" class="st7"/><path d="m98.7 130.2-1.2-10.1h5.7l-4.5 10.1zm-.7-9.7 1 8.2 3.7-8.2H98zM73.3 154.2l4.7-23.6 8.7 10.6-13.4 13zm4.9-22.7L73.9 153l12.3-11.9-8-9.6z" class="st7"/><path d="m74.1 155.2-9.6-18.7 5.7-13.9 3.9 32.6zm-9-18.8 7.9 15.5-3.2-27.1-4.7 11.6zM106.1 148l-28.8-17.5 21.7-1.2.1.1 7 18.6zm-27.5-17.3 26.7 16.3-6.6-17.4-20.1 1.1z" class="st7"/><path d="m93.7 154.3-.1-.2-7.6-13.3 20.2 6.7-12.5 6.8zm-6.8-12.8 7 12.3 11.3-6.2-18.3-6.1z" class="st7"/><path d="m81.2 159.9-8.3-6.5 21.7.4-13.4 6.1zm-7-6.1 7.1 5.7 11.6-5.3-18.7-.4zM105.7 149l-3-29.6 6.1 10.1v.1l-3.1 19.4zm-2.5-27.9 2.5 24.8 2.5-16.3-5-8.5z" class="st7"/><path d="m118.3 152.9-10.5-24.1 9.3 5.8 1.2 18.3zm-9.2-22.6 8.4 19.2-.9-14.6-7.5-4.6z" class="st7"/><path d="m117.4 151.7 7.7-14.9 4.2 8.4-11.9 6.5zm7.7-14-6.7 13 10.4-5.7-3.7-7.3z" class="st7"/><path d="m123.9 157-7.3-22.6 8.8 2.6-1.5 20zm-6.7-22 6.5 19.9 1.3-17.6-7.8-2.3z" class="st7"/><path d="m106.7 163 23-18.7-5.7 11.8h-.1l-17.2 6.9zm21.8-17.2L109 161.7l14.6-5.9 4.9-10z" class="st7"/><path d="m111 174.1 13.2-19.6-3.1 12.2-10.1 7.4zm12.2-17.5-10.6 15.8 8.1-5.9 2.5-9.9zM107.7 162.8l-2.2-15.6 12.8 3.9-10.6 11.7zm-1.8-15 2 14.1 9.6-10.6-11.6-3.5z" class="st7"/><path d="m95.3 183.1 12.6-21.2 4.2 11.4-.1.1-16.7 9.7zm12.5-20.3L96.4 182l15.1-8.8-3.7-10.4z" class="st7"/><path d="m103.6 193.5-8.3-11.4 12.6 5.1-4.3 6.3zM96.4 183l7.1 9.8 3.7-5.4-10.8-4.4z" class="st7"/><path d="m107.6 187.7-16-18.2 20.4 3.6-4.4 14.6zm-14.9-17.6 14.8 16.8 4.1-13.5-18.9-3.3z" class="st7"/><path d="m91.9 170.1 1.7-16.4 14.6 8.7-16.3 7.7zm2.1-15.8-1.6 15.1 15-7.1-13.4-8z" class="st7"/><path d="M83.2 180.4 81 159.2l11.4 10.6-9.2 10.6zm-1.7-20.2 2 19.2 8.3-9.6-10.3-9.6z" class="st7"/><path d="M83.1 193.8v-14.3l13.4 2.9-13.4 11.4zm.6-13.6v12.3l11.5-9.8-11.5-2.5z" class="st7"/><path d="M89.2 213.5 83 192.6 97 204l-7.8 9.5zm-5.4-19.8 5.6 18.9 7.1-8.6-12.7-10.3z" class="st7"/><path d="m96.5 204.7-.8-22.8 8.2 11.3-.1.1-7.3 11.4zm-.4-21.5.7 20.2 6.5-10.2-7.2-10zM103.3 222l-14.8-9.2 8.6.6.1.1 6.1 8.5zM90 213.3l11.7 7.3-4.9-6.8-6.8-.5z" class="st7"/><path d="M97.3 215.3 83.1 180l.5-.3L97 204l.3 11.3zm-11.8-30.9L96.6 212l-.2-7.8-10.9-19.8zM76.7 96.8 63.9 93l4.8-4.7 8 8.5zm-12-4L75.4 96l-6.7-7.1-4 3.9z" class="st7"/><path d="m84 99.2-8.3-2.8-8.7-9.1 17 11.9zm-8.1-3.1 5.6 1.8-11.5-8 5.9 6.2z" class="st7"/><circle cx="83" cy="98.8" r="1.3" class="st7"/><path d="M77.4 96.5c0 .7-.6 1.3-1.3 1.3-.7 0-1.3-.6-1.3-1.3 0-.7.6-1.3 1.3-1.3.7 0 1.3.6 1.3 1.3z" class="st7"/><path d="M65.6 92.9c0 .7-.6 1.3-1.3 1.3-.7 0-1.3-.6-1.3-1.3 0-.7.6-1.3 1.3-1.3.7 0 1.3.6 1.3 1.3z" class="st8"/><circle cx="78.9" cy="109.4" r="1.3" class="st7"/><path d="M73.1 115.9c0 .7-.6 1.3-1.3 1.3-.7 0-1.3-.6-1.3-1.3 0-.7.6-1.3 1.3-1.3.7-.1 1.3.5 1.3 1.3z" class="st7"/><circle cx="70" cy="123.7" r="1.3" class="st8"/><path d="M66.2 136.5c0 .7-.6 1.3-1.3 1.3-.7 0-1.3-.6-1.3-1.3 0-.7.6-1.3 1.3-1.3.7-.1 1.3.5 1.3 1.3z" class="st7"/><circle cx="78.1" cy="131" r="1.3" class="st7"/><circle cx="81.9" cy="119.7" r="1.3" class="st7"/><path d="M91.1 112.4c0 .7-.6 1.3-1.3 1.3-.7 0-1.3-.6-1.3-1.3s.6-1.3 1.3-1.3c.7 0 1.3.6 1.3 1.3zM99.1 120.3c0 .7-.6 1.3-1.3 1.3-.7 0-1.3-.6-1.3-1.3s.6-1.3 1.3-1.3c.7-.1 1.3.5 1.3 1.3zM104.3 120.3c0 .7-.6 1.3-1.3 1.3-.7 0-1.3-.6-1.3-1.3s.6-1.3 1.3-1.3c.7-.1 1.3.5 1.3 1.3zM109.8 129.6c0 .7-.6 1.3-1.3 1.3s-1.3-.6-1.3-1.3c0-.7.6-1.3 1.3-1.3s1.3.5 1.3 1.3zM100.1 129.4c0 .7-.6 1.3-1.3 1.3-.7 0-1.3-.6-1.3-1.3 0-.7.6-1.3 1.3-1.3.7 0 1.3.6 1.3 1.3zM87.8 141.1c0 .7-.6 1.3-1.3 1.3-.7 0-1.3-.6-1.3-1.3s.6-1.3 1.3-1.3c.7 0 1.3.6 1.3 1.3z" class="st7"/><circle cx="73.6" cy="153.6" r="1.3" class="st7"/><circle cx="81.3" cy="159.7" r="1.3" class="st8"/><circle cx="94" cy="154.4" r="1.3" class="st7"/><circle cx="105.7" cy="147.5" r="1.3" class="st7"/><path d="M118.2 134.7c0 .7-.6 1.3-1.3 1.3-.7 0-1.3-.6-1.3-1.3 0-.7.6-1.3 1.3-1.3.7 0 1.3.6 1.3 1.3zM126.4 137.7c0 .7-.6 1.3-1.3 1.3-.7 0-1.3-.6-1.3-1.3 0-.7.6-1.3 1.3-1.3.7-.1 1.3.5 1.3 1.3zM130.4 145.1c0 .7-.6 1.3-1.3 1.3s-1.3-.6-1.3-1.3c0-.7.6-1.3 1.3-1.3s1.3.5 1.3 1.3zM119.3 151.2c0 .7-.6 1.3-1.3 1.3-.7 0-1.3-.6-1.3-1.3 0-.7.6-1.3 1.3-1.3.7 0 1.3.6 1.3 1.3zM125.1 156c0 .7-.6 1.3-1.3 1.3-.7 0-1.3-.6-1.3-1.3 0-.7.6-1.3 1.3-1.3.7-.1 1.3.5 1.3 1.3zM122.5 166.6c0 .7-.6 1.3-1.3 1.3-.7 0-1.3-.6-1.3-1.3 0-.7.6-1.3 1.3-1.3.6 0 1.3.6 1.3 1.3zM109.2 162.4c0 .7-.6 1.3-1.3 1.3-.7 0-1.3-.6-1.3-1.3 0-.7.6-1.3 1.3-1.3.7-.1 1.3.5 1.3 1.3z" class="st7"/><circle cx="111.8" cy="173.2" r="1.3" class="st7"/><circle cx="92.2" cy="169.8" r="1.3" class="st7"/><path d="M84.7 179.9c0 .7-.6 1.3-1.3 1.3s-1.3-.6-1.3-1.3c0-.7.6-1.3 1.3-1.3s1.3.5 1.3 1.3zM97.2 182.5c0 .7-.6 1.3-1.3 1.3-.7 0-1.3-.6-1.3-1.3 0-.7.6-1.3 1.3-1.3.7 0 1.3.6 1.3 1.3z" class="st7"/><circle cx="107.6" cy="187.3" r="1.3" class="st8"/><path d="M104.9 193.2c0 .7-.6 1.3-1.3 1.3-.7 0-1.3-.6-1.3-1.3 0-.7.6-1.3 1.3-1.3.7-.1 1.3.5 1.3 1.3zM84.7 193.2c0 .7-.6 1.3-1.3 1.3s-1.3-.6-1.3-1.3c0-.7.6-1.3 1.3-1.3s1.3.5 1.3 1.3zM98 204c0 .7-.6 1.3-1.3 1.3-.7 0-1.3-.6-1.3-1.3s.6-1.3 1.3-1.3c.7 0 1.3.6 1.3 1.3z" class="st7"/><circle cx="89.2" cy="213.1" r="1.3" class="st7"/><path d="M98.3 213.6c0 .7-.6 1.3-1.3 1.3-.7 0-1.3-.6-1.3-1.3 0-.7.6-1.3 1.3-1.3.7-.1 1.3.6 1.3 1.3z" class="st7"/><circle cx="102.5" cy="221.3" r="1.3" class="st7"/><path d="M86.1 141.7 81.5 119l17.8 10.2-13.2 12.5zm-3.8-21.5 4.2 20.4 11.8-11.2-16-9.2z" class="st9"/><path d="M73.5 153.7v-.2l8.3-33.8.2.2 23.8 27.6h-.2l-32.1 6.2zm8.5-33.5-8.2 33.2 31.6-6.1L82 120.2z" class="st9"/><path d="m107.7 162.7-2.2-15.4h.1l24-2.6-21.9 18zm-2-15.2 2.1 14.7 20.9-17.2-23 2.5z" class="st9"/><path d="m95.8 182.7-3.6-13.3 13.7-22.9-10.1 36.2zm-3.4-13.2 3.3 12.3 9.5-33.7-12.8 21.4z" class="st9"/><path d="m103.6 193.5-11.5-24 .1-.1 15.6-7.1v.2l-4.2 31zm-11.1-23.9 11 23.1 4.1-30-15.1 6.9z" class="st9"/><path d="m103.7 193.4-8-11.1v-.1l10.3-35.9-2.3 47.1zm-7.8-11.1 7.5 10.4 2.2-44.3-9.7 33.9z" class="st9"/><path d="m108.1 162.7-34.7-9 .2-.1L86.3 141l21.8 21.7zm-34.2-9.2 33.5 8.7-21-20.9-12.5 12.2zM105.8 147.6l-7.1-18.1.3.1 30.6 15.4h-.4l-23.4 2.6zm-6.7-17.7 6.8 17.4 22.8-2.5-29.6-14.9z" class="st9"/><circle cx="81.9" cy="119.7" r="1.3" class="st9"/><path d="M100.1 129.4c0 .7-.6 1.3-1.3 1.3-.7 0-1.3-.6-1.3-1.3 0-.7.6-1.3 1.3-1.3.7 0 1.3.6 1.3 1.3z" class="st8"/><path d="M87.8 141.1c0 .7-.6 1.3-1.3 1.3-.7 0-1.3-.6-1.3-1.3s.6-1.3 1.3-1.3c.7 0 1.3.6 1.3 1.3z" class="st9"/><circle cx="73.6" cy="153.6" r="1.3" class="st9"/><circle cx="105.7" cy="147.5" r="1.3" class="st9"/><path d="M130.4 145.1c0 .7-.6 1.3-1.3 1.3s-1.3-.6-1.3-1.3c0-.7.6-1.3 1.3-1.3s1.3.5 1.3 1.3zM109.2 162.4c0 .7-.6 1.3-1.3 1.3-.7 0-1.3-.6-1.3-1.3 0-.7.6-1.3 1.3-1.3.7-.1 1.3.5 1.3 1.3z" class="st9"/><circle cx="92.2" cy="169.8" r="1.3" class="st9"/><path d="M97.2 182.5c0 .7-.6 1.3-1.3 1.3-.7 0-1.3-.6-1.3-1.3 0-.7.6-1.3 1.3-1.3.7 0 1.3.6 1.3 1.3zM104.9 193.2c0 .7-.6 1.3-1.3 1.3-.7 0-1.3-.6-1.3-1.3 0-.7.6-1.3 1.3-1.3.7-.1 1.3.5 1.3 1.3z" class="st9"/><circle cx="89.2" cy="213.1" r="1.3" class="st9"/><path d="m84.4 62.1-5.2-9.7 21 3.5-15.8 6.2zm-4.8-9.4 4.9 9.1L99.3 56l-19.7-3.3z" class="st10"/><path d="m55.5 65.7 23.9-13.3 5.2 9.7h-.2l-28.9 3.6zm23.9-13L56.7 65.3l27.6-3.4-4.9-9.2z" class="st10"/><path d="m45.5 93.3-.1-.1-22.3-19.9.2-.1 32.9-8-.1.2-10.6 27.9zM23.6 73.5l21.7 19.4 10.5-27.2-32.2 7.8z" class="st10"/><path d="m56 65.7 1.6-26.3.2.1L100.1 56l-.4.1L56 65.7zm1.8-26-1.6 25.7L99.3 56 57.8 39.7zM57.2 102l-11.9-8.9-24.1-30.2.2-.2 36 39.2-.2.1zm-11.7-9 10.8 8.1-32.8-35.7 22 27.6z" class="st10"/><path d="m68.5 88.8-.1-.2-12.5-23.3.3.1 24.3 5.4-.1.1-11.9 17.9zM56.3 65.7l12.2 22.6L80 70.9l-23.7-5.2zM84.6 62.8 75 33.3l8.5-15v.4l1.1 44.1zm-9.3-29.5 9 27.8-1-42-8 14.2z" class="st10"/><path d="m79.6 52.8-.2-.1-43.6-26.3 39.5 6.8v.1l4.3 19.5zM37 26.9l42.2 25.4L75 33.4l-38-6.5z" class="st10"/><path d="m75.2 33.4-39.5-6.8.7-.1 47.2-8-8.4 14.9zm-38.1-6.7 38 6.5 8.1-14.3-46.1 7.8z" class="st10"/><path d="M57.7 39.6 10.1 22.3l.1-.2 26.3 4.5 21.3 12.8-.1.2zM11.4 22.5 56.6 39 36.4 26.8l-25-4.3zM84.1 62.3l.3-.3L109 30.8 99.8 56h-.1l-15.6 6.3zM108.2 32 84.8 61.7l14.8-5.9 8.6-23.8zM80.4 71h-.1l-59.8-8.2.8-.1 58.3-10.2.8 18.5zM22 62.8l58.1 7.9-.8-18L22 62.8z" class="st10"/><path d="M56.3 65.6h-.2l-35-2.7.1-.2 15.2-36.3.1.2 19.8 39zm-34.9-2.9 34.5 2.7L36.4 27l-15 35.7zM80.3 71.1l-.1-.2-23.1-32.1L84.6 62v.1l-4.3 9zM58.4 40.2l21.8 30.4 4.1-8.6-25.9-21.8z" class="st10"/><path d="m84.7 62.2-14-4.8 7.8-9.8 6.2 14.6zM71 57.3l13.2 4.5L78.4 48 71 57.3zM125.1 21.7l17.7-12 5.7 9.6h-.2l-23.2 2.4zm17.6-11.6L126 21.4l22.1-2.2-5.4-9.1z" class="st10"/><path d="M79.3 52.8v-.3l4-34 .2.1 25.4 12.7-29.6 21.5zm4.2-33.9-3.9 33.4 28.8-20.9-24.9-12.5zM73.4 153.7v-.2l8.4-34.1.2.2 23.9 27.9h-.2l-32.3 6.2zM82 120l-8.3 33.4 31.7-6L82 120z" class="st10"/><path d="M111.7 173.4v-.2l-6.2-26.3 15.8 19.6-.1.1-9.5 6.8zm-5.8-25.4 5.9 25.1 9-6.5-14.9-18.6z" class="st10"/><path d="m103.7 193.7-.2-.1-20.1-13.3.1-.1 22.4-33.1-2.2 46.6zm-20-13.5 19.8 13.1 2.1-45.4-21.9 32.3z" class="st10"/><path d="m122.1 167-17.2-5.2-14.3-12.5 31.5 17.7zm-17.1-5.4 15.1 4.6-27.6-15.5 12.5 10.9z" class="st10"/><path d="M112.3 173.9 97 159.5l8 2.1 7.3 12.3zM97.9 160l13.3 12.6-6.4-10.7-6.9-1.9z" class="st10"/><path d="m111.9 173.5-.2-.2-20.5-23.6 22.7 7.6v.1l-2 16.1zm-20-23.3 19.8 22.7 1.9-15.4-21.7-7.3z" class="st10"/><path d="m103.6 193.7-.1-.1-20.8-13.9.3-.1 29-6.6-8.4 20.7zm-20.3-13.9 20.2 13.5 8.1-19.9-28.3 6.4z" class="st10"/><path d="M112.1 173.5 73 153.4l27.7 1.5v.1l11.4 18.5zm-38-19.8 37.4 19.2-10.9-17.8-26.5-1.4z" class="st10"/><path d="m89.3 213.4-.2-.1 28.7-62.2.2.1-13.8 41.8-14.9 20.4zm27.8-60.3-27.3 59.2 14.1-19.5 13.2-39.7z" class="st10"/><path d="m108.6 159.7-3-12.3.2.1 12.4 3.7-9.6 8.5zm-2.7-12 2.8 11.6 9-8.1-11.8-3.5z" class="st10"/><path d="M118 151.1h-.3l-26.2-1v-.1l-9.8-30.7 36.3 31.8zm-26.3-1.2 25.7 1-35.1-30.7 9.4 29.7zM89.4 213.4l-.2-.1 8.3-53.7 7.7 2v.1l-15.8 51.7zm8.2-53.5-8 51.8 15.2-49.9-7.2-1.9z" class="st10"/><path d="m165.4 44.3 9-11.6-.3 8.7-8.7 2.9zm8.6-10.4-7.5 9.6 7.2-2.4.3-7.2z" class="st7"/><path d="m180 43.3-6.3-1.9.2-9 6.1 10.9zm-5.9-2.2 5.1 1.5-4.9-8.8-.2 7.3z" class="st7"/><path d="m173.2 46.3.5-5.2 6.7 2.1-7.2 3.1zm.9-4.8-.4 4.1 5.6-2.4-5.2-1.7zM181.7 57.9l-8.8-7.9 10.2-4.4-1.4 12.3zm-8.1-7.8 7.8 7 1.2-10.9-9 3.9zM176.8 67.6 166 57.5l10.1.2.7 9.9zm-9.8-9.7 9.3 8.7-.7-8.6-8.6-.1z" class="st7"/><path d="m165.8 66.9.5-9.5 10.1-.1-10.6 9.6zm.9-9-.4 8.1 9.2-8.2-8.8.1z" class="st7"/><path d="m165.3 66.7 16.6-10-5 9.9-11.6.1zm15.6-9-14.1 8.5 9.9-.1 4.2-8.4z" class="st7"/><path d="m181.2 59-2-16.6 3.8 3.5-1.8 13.1zm-1.5-15.6 1.5 12.5 1.4-9.9-2.9-2.6z" class="st7"/><path d="m195.2 54.8-12.7-8.9 7.3-5.7 5.4 14.6zm-12-8.9 11.2 7.8-4.7-12.8-6.5 5z" class="st7"/><path d="m195.8 63-6.9-8 6-1.3.9 9.3zm-6.1-7.8 5.6 6.6-.7-7.6-4.9 1z" class="st7"/><path d="m193.8 68.6 1.3-7 5.9.6-7.2 6.4zm1.7-6.5-1.1 5.5 5.7-5-4.6-.5zM180.8 57.7l9.1-18-.6 15.9-8.5 2.1zm8.7-16.2-7.9 15.6 7.4-1.8.5-13.8zM191.1 33.5l-8.3-3.6 9.5-5-1.2 8.6zm-7.4-3.7 7.1 3.1 1-7.3-8.1 4.2z" class="st7"/><path d="m191.5 25.5 8.1-8.8 6 7.1-14.1 1.7zm8.1-8.2-7 7.7 12.2-1.5-5.2-6.2zM197 37.5l-6.4-4.3 6.7-4.8-.3 9.1zm-5.7-4.3 5.3 3.6.2-7.6-5.5 4z" class="st7"/><path d="m196.6 29.4 2.8-13.1 6.3 7.1-9.1 6zm3.1-11.8-2.2 10.5 7.3-4.8-5.1-5.7z" class="st7"/><path d="m218.3 26.4-13.6-3 10.2-6.5 3.4 9.5zm-12.5-3.1 11.9 2.6-3-8.3-8.9 5.7z" class="st7"/><path d="m205.2 23.6-6.1-6.8 16.8.3-10.7 6.5zm-5.2-6.4 5.3 5.9 9.2-5.7-14.5-.2z" class="st7"/><path d="m211.3 32.2-8.9-2 2.9-7.2 6 9.2zm-8.4-2.4 7.5 1.7-5.1-7.8-2.4 6.1z" class="st7"/><path d="M221.1 34.7 210.4 32l7.7-6.1 3 8.8zm-9.8-2.9 9.2 2.3-2.6-7.6-6.6 5.3zM189.2 41.1l8.1-13.1-.4 9-7.7 4.1zm7.6-11.5-6.5 10.5 6.1-3.3.4-7.2zM212.9 44.7l-12.7-2 3.7-7.3 9 9.3zm-12.1-2.3 11 1.7-7.8-8-3.2 6.3z" class="st7"/><path d="m212.2 44.9-2-13.6 10.9 2.9-8.9 10.7zm-1.5-13 1.8 12.1 8-9.5-9.8-2.6z" class="st7"/><path d="M203.7 52.7V35.5l7.1-4.3-7.1 21.5zm.4-17v14.6l5.9-18.2-5.9 3.6z" class="st7"/><path d="M203.8 51.8 189 40.3l12 1.7 2.8 9.8zm-13.3-10.9 12.6 9.8-2.3-8.3-10.3-1.5z" class="st7"/><path d="m204.3 61.8-9.9-8 9.2-2.8v.3l.7 10.5zm-9.1-7.8 8.6 6.9-.6-9.4-8 2.5z" class="st7"/><path d="m205.3 68.9-1.2-7.4 6.2-.6-5 8zm-.7-7 .9 5.9 4-6.4-4.9.5z" class="st7"/><path d="M209.9 61.6 203 51l12.8 1.3-5.9 9.3zm-6.1-10.1 6.1 9.4 5.2-8.2-11.3-1.2z" class="st7"/><path d="m215 52.7 12.7-12.9-2.7 11.7-10 1.2zm12-11.6-10.9 11 8.6-1 2.3-10z" class="st7"/><path d="m215.5 53-3.4-8.6 9.2-10.9-5.8 19.5zm-3-8.5 2.9 7.3 4.9-16.6-7.8 9.3z" class="st7"/><path d="m220.3 56-5.3-3.7 10.4-1.2-5.1 4.9zm-4.3-3.4 4.2 2.9 4-3.9-8.2 1zM212.7 69.9l-3.2-9 11.5-.1-8.3 9.1zm-2.4-8.4 2.6 7.2 6.6-7.4-9.2.2z" class="st7"/><path d="m223.5 69-3-8.4 11.2-.3-8.2 8.7zm-2.4-8 2.6 7.3 7.1-7.5-9.7.2z" class="st7"/><path d="m231.3 60.9-7-9.9 11.1 3.9-4.1 6zm-6-9.1 6 8.4 3.4-5.1-9.4-3.3zM212.3 69.5l8.4-8.6 3.1 7.6-11.5 1zm8.3-7.8-7.2 7.4 9.9-.9-2.7-6.5z" class="st7"/><path d="m222.6 77.5.9-9.5 9.8 7.4-10.7 2.1zm1.2-8.8L223 77l9.3-1.9-8.5-6.4zM244.6 51l-17.8-10.5 14.4-4.7 3.4 15.2zm-16.8-10.5 16.2 9.6-3-13.9-13.2 4.3z" class="st7"/><path d="m241.5 36.2-21-1.6 11.4-15.7 9.6 17.3zm-20.3-2 19.6 1.5-9-16.1-10.6 14.6z" class="st7"/><path d="m240.6 36.5 7.3-17.1L265 28l-24.4 8.5zm7.6-16.3-6.5 15.3 21.8-7.5-15.3-7.8z" class="st7"/><path d="m260.4 71.3-19.9-35.9 17.7 6.4v.2l2.2 29.3zm-18.6-34.8 17.8 32.1-2-26.3-15.8-5.8zM231.9 19.4l-.1-.4 15.5-6.7h.1l10.5 1.2-26 5.9zm15.4-6.6-13.4 5.8 21.5-4.8-8.1-1z" class="st7"/><path d="M266.1 29.3 247.7 20l-.9-8.1 19.3 17.4zm-17.8-9.7 14.1 7.1-14.8-13.4.7 6.3z" class="st7"/><path d="m264.3 28.7-8.1-15.1 10.3-5V9l-2.2 19.7zm-7.5-15 7.3 13.6 2-18.1-9.3 4.5zM310.5 39.5l-69.4-3.3v-.6l46.5-5.9h.1l22.8 9.8zm-65.9-3.7 62.6 2.9-19.6-8.3-43 5.4zM227.3 40.8l-6.8-6.4L249.1 19l-21.8 21.8zm-6.2-6.4 6.2 5.8 19.6-19.6-25.8 13.8zM243.5 59.9l.6-9.5.1-.1 14.6-9.1-15.3 18.7zm1-9.2-.5 8 12.9-15.8-12.4 7.8z" class="st7"/><path d="m235.2 54.7 5.9-19.5 3.1 14.7-9 4.8zm5.9-17.9-5.2 17.1 7.9-4.2-2.7-12.9z" class="st7"/><path d="m239.1 66.7-8-6.2 4.6-6.8 3.4 13zm-7.5-6.2 6.8 5.2-2.9-11-3.9 5.8zM226.3 87.8l-5.4-5.4 12.4-7.7-7 13.1zm-4.8-5.3 4.7 4.7 6-11.3-10.7 6.6z" class="st7"/><path d="M232.6 75.8 231 60l7.9 6.1-6.3 9.7zM231.5 61l1.4 13.7 5.6-8.4-7-5.3zM248.4 70.7l-.1-.1-5.6-12 17.8 11.6-12.1.5zm-4.7-11.1 5 10.7 10.7-.5-15.7-10.2z" class="st7"/><path d="m250.9 85.2-10.9-5-1.8-15.3 12.7 20.3zm-10.3-5.4 8.8 4-10.2-16.3 1.4 12.3z" class="st7"/><path d="m250.5 85.7-12.5-20 11.3 3.8 1.2 16.2zm-11.1-18.9 10.3 16.6-1-13.5-9.3-3.1zM259.1 70.9l9.4-15.2h.1l20-9.4-29.5 24.6zm9.8-14.9-8.1 13L286 48l-17.1 8zM234.7 100.8l-.1-.2-8.7-13.4 19.4 1.7-10.6 11.9zm-8.1-13.1 8.1 12.4 9.7-10.9-17.8-1.5z" class="st7"/><path d="m245.7 90.4-14-16 8.8 5.5 5.2 10.5zm-11.9-14.2L244 87.8l-3.8-7.6-6.4-4z" class="st7"/><path d="m248.2 104.6-3.7-15.8 9.3 2.3-.1.2-5.5 13.3zm-3.1-15.3 3.2 14 5-12-8.2-2z" class="st7"/><path d="m236.2 109-1.7-8.8 14.4 3.7-12.7 5.1zm-1.2-8.2 1.5 7.7 11.2-4.5-12.7-3.2zM220.7 35l-3.1-9 14.7-7.5L220.7 35zm-2.3-8.7 2.5 7.4 9.6-13.6-12.1 6.2zM279.3 19.7 265.5 8.2l19.4.1-5.6 11.4zM267.1 8.9l11.9 9.9 4.8-9.8-16.7-.1z" class="st7"/><path d="m287.5 30.7-3.3-22.3 13.3 5.2-.1.2-9.9 16.9zM284.6 9l3.1 20.5 9.1-15.8L284.6 9z" class="st7"/><path d="m309.2 39.9-.4-.3-29.9-21.1 27.7-2.6v.2l2.6 23.8zm-29.2-21 28.7 20.2-2.5-22.7-26.2 2.5z" class="st7"/><path d="m268.4 56.8-4.7-28.9 16.1-9.6-11.4 38.5zm-4.3-28.7 4.4 26.9 10.6-35.8-15 8.9zM298.8 57.4l-12-10.5v-.1l.5-17.6 11.5 28.2zm-11.5-10.7 10.6 9.3-10.1-24.9-.5 15.6zM265.8 87.2l-16-2.5L260 69.5l5.8 17.7zm-15.3-2.8 14.8 2.3-5.3-16.3-9.5 14z" class="st7"/><path d="m273.3 73.1-14-3.1 40.6-14.1-26.6 17.2zm-12.6-3.2 12.5 2.8 23.6-15.3-36.1 12.5z" class="st7"/><path d="M291.7 74.4 273.1 73v-.1l-5-17.6 23.6 19.1zm-18.3-1.7 17 1.3-21.6-17.5 4.6 16.2z" class="st7"/><path d="m274.5 91.2-9.3-4.2 8.1-14.9 1.2 19.1zm-8.7-4.3 8.3 3.8-1-17-7.3 13.2zM306.4 16.4 295.9 14l23.3-.9.1.4-12.9 2.9zm-7.4-2.1 7.4 1.7 10.6-2.3-18 .6z" class="st7"/><path d="m308.3 40.5 10.1-28.2 2 13.4-12.1 14.8zm10-26.6-8.8 24.5L320 25.5l-1.7-11.6z" class="st7"/><path d="m337 33-19.5-20.3 15.7 3.4L337 33zm-17.7-19.4L335.9 31l-3.2-14.4-13.4-3z" class="st7"/><path d="m350.7 28.1-.2-.2-18.8-12.4 21 2.8-2 9.8zm-17.4-12 17.1 11.3 1.8-8.8-18.9-2.5z" class="st7"/><path d="m348.5 33.5-13-1.4 15.6-5.5-2.6 6.9zm-11.2-1.6 10.9 1.2 2.2-5.8-13.1 4.6zM368.3 23.4l-17.6-5.3 25.6 1.5-8 3.8zm-14.2-4.7 14.2 4.3 6.4-3.1-20.6-1.2z" class="st7"/><path d="m355.5 28 12.9-5 2.9 4.7-15.8.3zm12.7-4.5-10.5 4 12.9-.2-2.4-3.8z" class="st7"/><path d="m357 28-6.4-.9 1.7-9.3L357 28zm-6-1.2 5.3.7-3.8-8.4-1.5 7.7z" class="st7"/><path d="m355.3 38.9 1.2-11.7 4.7 6.1-5.9 5.6zm1.5-10.6-1 9.6 4.8-4.6-3.8-5z" class="st7"/><path d="m363.3 47-6.9-19.4 12.2-4.7-5.3 24.1zm-6.4-19.2 6.3 17.7 4.8-22.1-11.1 4.4z" class="st7"/><path d="m363.6 46.9-8.3-8.6.1-.1 5.6-5.3 2.6 14zm-7.8-8.5 7.1 7.3-2.2-12-4.9 4.7zM333.6 41.1l-14-16 17.1 6.7-.1.2-3 9.1zm-12.7-15 12.5 14.3 2.8-8.3-15.3-6z" class="st7"/><path d="m344.3 60.8-11.4-20.6 13.7 4.9-2.3 15.7zm-10.1-19.5L344 59l2-13.5-11.8-4.2zM314.4 75.4l-5.8-36.8 9.8 15.7-4 21.1zm-5.1-35 5.2 32.6 3.5-18.7-8.7-13.9z" class="st7"/><path d="m327.6 65.1-10-11.1 26.8 5.9-16.8 5.2zm-8.9-10.5 9.1 10.1 15.1-4.8-24.2-5.3z" class="st7"/><path d="m336.7 65.6-9.2-.6 6.2-25.5 3 26.1zm-8.8-.9 8.3.5-2.8-23.4-5.5 22.9z" class="st7"/><path d="m342.2 73.9-6-8.5 7.7-6-1.7 14.5zm-5.5-8.4 5.2 7.4 1.5-12.6-6.7 5.2zM334.9 91.3 327.2 64l10 12.8-2.3 14.5zm-6.8-25.5 6.6 23.6 2-12.6-8.6-11z" class="st7"/><path d="m321.8 95.6-.1-.3-7.6-21.3 24.1 3-16.4 18.6zm-7.1-21.2 7.2 20.4 15.5-17.5-22.7-2.9z" class="st7"/><path d="M314.9 74.4h-23.6l7.1-17.6 16.5 17.6zm-23-.4H314l-15.4-16.4-6.7 16.4z" class="st7"/><path d="M322.6 95.5 298 92.2l-6.9-18.5 31.5 21.8zm-24.2-3.7 22.7 3.1L292 74.7l6.4 17.1z" class="st7"/><path d="m321.6 101.8-19.3-1.1-4.5-9.1 23.8 10.2zm-19-1.5 16.8 1-20.8-8.9 4 7.9z" class="st7"/><path d="m307.9 102.9 14.2-8.1-1.4 7-12.8 1.1zm13.7-7.3-11.8 6.8 10.6-1 1.2-5.8z" class="st7"/><path d="m327.2 109.7-14.6-1.2-4.7-6.5 19.3 7.7zm-14.2-1.8 10.4.9-13.7-5.5 3.3 4.6z" class="st7"/><path d="m320.3 114.9-7.9-6.7 8.5-7.3-.6 14zm-7-6.7 6.4 5.5.5-11.4-6.9 5.9z" class="st7"/><path d="m311.2 119.9-2.7-18 4.5 6.3-1.8 11.7zm-2.1-16.5 2.1 13.8 1.4-9-3.5-4.8z" class="st7"/><path d="m318 128.5-7-10v-.1l1.7-11.3 5.3 21.4zm-6.6-10 5.7 8.1-4.3-17.4-1.4 9.3zM286.6 103.5l-11.7-2.3-.9-10.8 12.6 13.1zm-11.3-2.7 10.1 2-10.9-11.4.8 9.4z" class="st7"/><path d="m289.2 120.3-6.9-4.9 3.7-13.2 3.2 18.1zm-6.4-5 5.9 4.2-2.7-15.4-3.2 11.2z" class="st7"/><path d="m282.6 115.9-7.7-14.9.1-.1 17-27.8-9.4 42.8zm-7.3-14.9 7.1 13.7 8.7-39.5-15.8 25.8z" class="st7"/><path d="m286 103.4-11.6-12.7 24.3 1.1-12.7 11.6zm-10.7-12.3 10.7 11.7 11.7-10.7-22.4-1z" class="st7"/><path d="M86.3 62c0 1-.8 1.9-1.9 1.9-1 0-1.9-.8-1.9-1.9s.8-1.9 1.9-1.9c1.1 0 1.9.8 1.9 1.9zM25.2 73.4c0 1-.8 1.8-1.8 1.8s-1.8-.8-1.8-1.8.8-1.8 1.8-1.8 1.8.8 1.8 1.8zM82.9 119.7c0 .6-.5 1-1 1-.6 0-1-.5-1-1 0-.6.5-1 1-1 .6 0 1 .5 1 1z" class="st10"/><circle cx="73.6" cy="153.6" r="1" class="st10"/><path d="M122.1 166.6c0 .4-.5 1-1 1-.6 0-1-.5-1-1 0-.6.5-1 1-1 .6 0 1 .6 1 1zM119.9 151.1c0 .8-.9 2-2 2s-2-.9-2-2 .9-2 2-2 2 1.2 2 2zM91.3 213.3c0 .9-.9 2.1-2.1 2.1-1.1 0-2.1-.9-2.1-2.1 0-1.1.9-2.1 2.1-2.1 1.2.1 2.1 1.3 2.1 2.1zM109.3 159.6c0 .3-.3.7-.7.7-.4 0-.7-.3-.7-.7s.3-.7.7-.7c.4 0 .7.4.7.7zM105.8 161.9c0 .3-.3.7-.7.7-.4 0-.7-.3-.7-.7s.3-.7.7-.7c.4 0 .7.4.7.7zM98 159.9c0 .3-.3.7-.7.7-.4 0-.7-.3-.7-.7s.3-.7.7-.7c.4.1.7.4.7.7zM92.2 150.1c0 .3-.3.7-.7.7-.4 0-.7-.3-.7-.7 0-.4.3-.7.7-.7.4 0 .7.4.7.7z" class="st10"/><circle cx="111.8" cy="173.2" r="1" class="st10"/><path d="M104.9 193.2c0 .7-.6 1.3-1.3 1.3-.7 0-1.3-.6-1.3-1.3 0-.7.6-1.3 1.3-1.3.7-.1 1.3.5 1.3 1.3z" class="st10"/><circle cx="79.4" cy="52.6" r="1.6" class="st10"/><path d="M101.1 55.9c0 .7-.6 1.3-1.3 1.3-.7 0-1.3-.6-1.3-1.3 0-.7.6-1.3 1.3-1.3.7 0 1.3.6 1.3 1.3z" class="st10"/><circle cx="105.7" cy="147.5" r="2" class="st10"/><circle cx="56.1" cy="65.5" r="1.3" class="st10"/><path d="M22.3 62.8c0 .6-.5 1-1 1-.6 0-1-.5-1-1 0-.6.5-1 1-1s1 .4 1 1zM47.2 93.1c0 1-.8 1.8-1.8 1.8s-1.8-.8-1.8-1.8.8-1.8 1.8-1.8 1.8.8 1.8 1.8zM84.7 179.9c0 .7-.6 1.3-1.3 1.3s-1.3-.6-1.3-1.3c0-.7.6-1.3 1.3-1.3s1.3.5 1.3 1.3zM109.6 31.3c0 .6-.5 1-1 1-.6 0-1-.5-1-1 0-.6.5-1 1-1s1 .5 1 1zM81.3 70.8c0 .6-.5 1-1 1s-1-.5-1-1c0-.6.5-1 1-1s1 .5 1 1zM11.1 22.2c0 .6-.5 1-1 1-.6 0-1-.5-1-1 0-.6.5-1 1-1 .6-.1 1 .4 1 1zM126.5 21.6c0 .6-.5 1-1 1-.6 0-1-.5-1-1 0-.6.5-1 1-1 .6-.1 1 .4 1 1zM149.3 19.3c0 .6-.5 1-1 1-.6 0-1-.5-1-1 0-.6.5-1 1-1 .6 0 1 .4 1 1zM143.8 9.9c0 .6-.5 1-1 1s-1-.5-1-1c0-.6.5-1 1-1s1 .5 1 1zM76.2 33.3c0 .6-.5 1-1 1-.6 0-1-.5-1-1 0-.6.5-1 1-1s1 .4 1 1zM84.4 18.7c0 .6-.5 1-1 1-.6 0-1-.5-1-1 0-.6.5-1 1-1 .6 0 1 .4 1 1zM37.4 26.7c0 .6-.5 1-1 1s-1-.5-1-1c0-.6.5-1 1-1s1 .4 1 1zM58.9 39c0 .6-.5 1-1 1-.6 0-1-.5-1-1 0-.6.5-1 1-1 .6 0 1 .5 1 1z" class="st10"/><circle cx="70.7" cy="57.3" r=".8" class="st10"/><path d="M79.2 47.6c0 .5-.4.8-.8.8s-.8-.4-.8-.8c0-.5.4-.8.8-.8s.8.3.8.8z" class="st10"/><circle cx="87.2" cy="58.7" r=".8" class="st10"/><path d="M75.1 53.4c0 .5-.4.8-.8.8-.5 0-.8-.4-.8-.8 0-.5.4-.8.8-.8.4-.1.8.3.8.8zM80.6 60.3c0 .5-.4.8-.8.8-.5 0-.8-.4-.8-.8 0-.5.4-.8.8-.8s.8.4.8.8z" class="st10"/><circle cx="56.5" cy="56.7" r=".8" class="st10"/><path d="M74.9 61.7c0 .5-.4.8-.8.8-.5 0-.8-.4-.8-.8s.4-.8.8-.8.8.4.8.8zM29.7 72.3c0 .5-.4.8-.8.8-.5 0-.8-.4-.8-.8 0-.5.4-.8.8-.8.4-.1.8.3.8.8zM92.6 52.8c0 .5-.4.8-.8.8-.5 0-.8-.4-.8-.8 0-.5.4-.8.8-.8.4-.1.8.3.8.8z" class="st10"/><circle cx="68.5" cy="88.5" r="1" class="st10"/><circle cx="57.3" cy="101.9" r="1" class="st10"/><path d="M167.4 66.7c0 .7-.6 1.3-1.3 1.3-.7 0-1.3-.6-1.3-1.3 0-.7.6-1.3 1.3-1.3.7 0 1.3.6 1.3 1.3z" class="st7"/><circle cx="166.5" cy="58" r="1.3" class="st7"/><circle cx="175.8" cy="58" r="1.3" class="st7"/><path d="M177.9 66.8c0 .7-.6 1.3-1.3 1.3-.7 0-1.3-.6-1.3-1.3 0-.7.6-1.3 1.3-1.3.7-.1 1.3.5 1.3 1.3z" class="st8"/><path d="M182.7 57.5c0 .7-.6 1.3-1.3 1.3-.7 0-1.3-.6-1.3-1.3 0-.7.6-1.3 1.3-1.3.7-.1 1.3.5 1.3 1.3zM190.7 55.3c0 .7-.6 1.3-1.3 1.3-.7 0-1.3-.6-1.3-1.3 0-.7.6-1.3 1.3-1.3.7 0 1.3.6 1.3 1.3zM196.8 62.1c0 .7-.6 1.3-1.3 1.3s-1.3-.6-1.3-1.3c0-.7.6-1.3 1.3-1.3s1.3.5 1.3 1.3zM202 62.8c0 .7-.6 1.3-1.3 1.3s-1.3-.6-1.3-1.3c0-.7.6-1.3 1.3-1.3s1.3.5 1.3 1.3z" class="st7"/><circle cx="194.1" cy="68.1" r="1.3" class="st7"/><path d="M174.8 50.3c0 .7-.6 1.3-1.3 1.3-.7 0-1.3-.6-1.3-1.3 0-.7.6-1.3 1.3-1.3.7 0 1.3.6 1.3 1.3zM184.3 46.1c0 .7-.6 1.3-1.3 1.3-.7 0-1.3-.6-1.3-1.3s.6-1.3 1.3-1.3c.7-.1 1.3.5 1.3 1.3zM175 45.8c0 .7-.6 1.3-1.3 1.3-.7 0-1.3-.6-1.3-1.3 0-.7.6-1.3 1.3-1.3.7-.1 1.3.5 1.3 1.3zM175.3 41.3c0 .7-.6 1.3-1.3 1.3-.7 0-1.3-.6-1.3-1.3 0-.7.6-1.3 1.3-1.3.7-.1 1.3.5 1.3 1.3zM167.5 43.8c0 .7-.6 1.3-1.3 1.3-.7 0-1.3-.6-1.3-1.3 0-.7.6-1.3 1.3-1.3.7 0 1.3.6 1.3 1.3zM175.6 33.3c0 .7-.6 1.3-1.3 1.3-.7 0-1.3-.6-1.3-1.3 0-.7.6-1.3 1.3-1.3.7 0 1.3.6 1.3 1.3zM180.9 43.1c0 .7-.6 1.3-1.3 1.3-.7 0-1.3-.6-1.3-1.3 0-.7.6-1.3 1.3-1.3.7 0 1.3.6 1.3 1.3zM191 40.7c0 .7-.6 1.3-1.3 1.3-.7 0-1.3-.6-1.3-1.3 0-.7.6-1.3 1.3-1.3.7 0 1.3.6 1.3 1.3zM202.1 42.3c0 .7-.6 1.3-1.3 1.3-.7 0-1.3-.6-1.3-1.3 0-.7.6-1.3 1.3-1.3.7 0 1.3.6 1.3 1.3zM205 51.4c0 .7-.6 1.3-1.3 1.3s-1.3-.6-1.3-1.3c0-.7.6-1.3 1.3-1.3s1.3.5 1.3 1.3zM196.3 54.3c0 .7-.6 1.3-1.3 1.3-.7 0-1.3-.6-1.3-1.3 0-.7.6-1.3 1.3-1.3.7-.1 1.3.5 1.3 1.3zM205.8 61.7c0 .7-.6 1.3-1.3 1.3-.7 0-1.3-.6-1.3-1.3s.6-1.3 1.3-1.3c.7 0 1.3.6 1.3 1.3zM211.1 61.2c0 .7-.6 1.3-1.3 1.3-.7 0-1.3-.6-1.3-1.3 0-.7.6-1.3 1.3-1.3.7-.1 1.3.5 1.3 1.3zM214.3 69.4c0 .7-.6 1.3-1.3 1.3-.7 0-1.3-.6-1.3-1.3 0-.7.6-1.3 1.3-1.3.7 0 1.3.6 1.3 1.3z" class="st7"/><circle cx="223.6" cy="68.6" r="1.3" class="st7"/><path d="M206.9 68.4c0 .7-.6 1.3-1.3 1.3-.7 0-1.3-.6-1.3-1.3 0-.7.6-1.3 1.3-1.3.7-.1 1.3.5 1.3 1.3z" class="st8"/><path d="M216.9 52.7c0 .7-.6 1.3-1.3 1.3-.7 0-1.3-.6-1.3-1.3s.6-1.3 1.3-1.3c.7 0 1.3.6 1.3 1.3z" class="st7"/><circle cx="220.2" cy="55.8" r="1.3" class="st8"/><path d="M226.3 51.6c0 .7-.6 1.3-1.3 1.3-.7 0-1.3-.6-1.3-1.3 0-.7.6-1.3 1.3-1.3.7 0 1.3.6 1.3 1.3z" class="st7"/><path d="M232.4 60.7c0 .7-.6 1.3-1.3 1.3-.7 0-1.3-.6-1.3-1.3 0-.7.6-1.3 1.3-1.3.7-.1 1.3.5 1.3 1.3z" class="st8"/><path d="M221.8 61.2c0 .7-.6 1.3-1.3 1.3-.7 0-1.3-.6-1.3-1.3 0-.7.6-1.3 1.3-1.3.7-.1 1.3.5 1.3 1.3zM205.3 36c0 .7-.6 1.3-1.3 1.3-.7 0-1.3-.6-1.3-1.3 0-.7.6-1.3 1.3-1.3.7-.1 1.3.5 1.3 1.3zM211.9 31.7c0 .7-.6 1.3-1.3 1.3-.7 0-1.3-.6-1.3-1.3 0-.7.6-1.3 1.3-1.3.7 0 1.3.6 1.3 1.3z" class="st7"/><circle cx="202.9" cy="29.9" r="1.3" class="st7"/><circle cx="205" cy="23.5" r="1.3" class="st7"/><path d="M198.4 29.1c0 .7-.6 1.3-1.3 1.3-.7 0-1.3-.6-1.3-1.3 0-.7.6-1.3 1.3-1.3.7-.1 1.3.5 1.3 1.3zM198.1 37c0 .7-.6 1.3-1.3 1.3-.7 0-1.3-.6-1.3-1.3 0-.7.6-1.3 1.3-1.3.7 0 1.3.6 1.3 1.3z" class="st7"/><circle cx="190.9" cy="33" r="1.3" class="st7"/><path d="M184.6 30.1c0 .7-.6 1.3-1.3 1.3-.7 0-1.3-.6-1.3-1.3s.6-1.3 1.3-1.3c.7 0 1.3.6 1.3 1.3zM193.3 25.6c0 .7-.6 1.3-1.3 1.3-.7 0-1.3-.6-1.3-1.3 0-.7.6-1.3 1.3-1.3.7 0 1.3.6 1.3 1.3zM201 17.1c0 .7-.6 1.3-1.3 1.3-.7 0-1.3-.6-1.3-1.3 0-.7.6-1.3 1.3-1.3.7 0 1.3.6 1.3 1.3z" class="st7"/><circle cx="215.1" cy="17.1" r="1.3" class="st7"/><path d="M219.1 26.1c0 .7-.6 1.3-1.3 1.3-.7 0-1.3-.6-1.3-1.3 0-.7.6-1.3 1.3-1.3.7 0 1.3.6 1.3 1.3z" class="st7"/><path d="M232.9 19.1c0 .7-.6 1.3-1.3 1.3-.7 0-1.3-.6-1.3-1.3 0-.7.6-1.3 1.3-1.3.7 0 1.3.6 1.3 1.3zM249.4 20c0 .7-.6 1.3-1.3 1.3-.7 0-1.3-.6-1.3-1.3 0-.7.6-1.3 1.3-1.3.7 0 1.3.6 1.3 1.3z" class="st8"/><path d="M248.4 12.8c0 .7-.6 1.3-1.3 1.3-.7 0-1.3-.6-1.3-1.3 0-.7.6-1.3 1.3-1.3.7-.1 1.3.5 1.3 1.3zM257.8 13.7c0 .7-.6 1.3-1.3 1.3-.7 0-1.3-.6-1.3-1.3s.6-1.3 1.3-1.3c.7-.1 1.3.5 1.3 1.3zM242.7 36c0 .7-.6 1.3-1.3 1.3-.7 0-1.3-.6-1.3-1.3 0-.7.6-1.3 1.3-1.3.7-.1 1.3.5 1.3 1.3zM222 34.4c0 .7-.6 1.3-1.3 1.3-.7 0-1.3-.6-1.3-1.3 0-.7.6-1.3 1.3-1.3.7-.1 1.3.5 1.3 1.3zM213.8 44.2c0 .7-.6 1.3-1.3 1.3-.7 0-1.3-.6-1.3-1.3 0-.7.6-1.3 1.3-1.3.7-.1 1.3.5 1.3 1.3z" class="st7"/><circle cx="227.3" cy="40.7" r="1.3" class="st7"/><path d="M236.6 55.1c0 .7-.6 1.3-1.3 1.3-.7 0-1.3-.6-1.3-1.3 0-.7.6-1.3 1.3-1.3.7-.1 1.3.5 1.3 1.3zM245.7 50.6c0 .7-.6 1.3-1.3 1.3-.7 0-1.3-.6-1.3-1.3 0-.7.6-1.3 1.3-1.3.6-.1 1.3.5 1.3 1.3zM244.9 59.6c0 .7-.6 1.3-1.3 1.3-.7 0-1.3-.6-1.3-1.3 0-.7.6-1.3 1.3-1.3.7-.1 1.3.5 1.3 1.3z" class="st7"/><circle cx="248.8" cy="69.9" r="1.3" class="st7"/><path d="M240.3 66.2c0 .7-.6 1.3-1.3 1.3-.7 0-1.3-.6-1.3-1.3 0-.7.6-1.3 1.3-1.3.7 0 1.3.6 1.3 1.3z" class="st7"/><circle cx="240.5" cy="80" r="1.3" class="st7"/><path d="M251.2 84.8c0 .7-.6 1.3-1.3 1.3s-1.3-.6-1.3-1.3c0-.7.6-1.3 1.3-1.3s1.3.6 1.3 1.3z" class="st8"/><path d="M267.2 86.9c0 .7-.6 1.3-1.3 1.3s-1.3-.6-1.3-1.3c0-.7.6-1.3 1.3-1.3s1.3.6 1.3 1.3z" class="st7"/><path d="M274.9 72.9c0 .7-.6 1.3-1.3 1.3-.7 0-1.3-.6-1.3-1.3 0-.7.6-1.3 1.3-1.3.7-.1 1.3.5 1.3 1.3z" class="st8"/><path d="M261.1 69.9c0 .7-.6 1.3-1.3 1.3-.7 0-1.3-.6-1.3-1.3 0-.7.6-1.3 1.3-1.3.7 0 1.3.6 1.3 1.3zM270.1 56.1c0 .7-.6 1.3-1.3 1.3s-1.3-.6-1.3-1.3c0-.7.6-1.3 1.3-1.3s1.3.6 1.3 1.3zM259.2 42.3c0 .7-.6 1.3-1.3 1.3-.7 0-1.3-.6-1.3-1.3 0-.7.6-1.3 1.3-1.3.7 0 1.3.6 1.3 1.3zM265.3 28.3c0 .7-.6 1.3-1.3 1.3-.7 0-1.3-.6-1.3-1.3 0-.7.6-1.3 1.3-1.3.7-.1 1.3.5 1.3 1.3zM267.6 8.7c0 .7-.6 1.3-1.3 1.3-.7 0-1.3-.6-1.3-1.3 0-.7.6-1.3 1.3-1.3.6 0 1.3.6 1.3 1.3zM285.7 8.9c0 .7-.6 1.3-1.3 1.3-.7 0-1.3-.6-1.3-1.3 0-.7.6-1.3 1.3-1.3.7-.1 1.3.5 1.3 1.3z" class="st7"/><path d="M280.7 19c0 .7-.6 1.3-1.3 1.3-.7 0-1.3-.6-1.3-1.3 0-.7.6-1.3 1.3-1.3.7-.1 1.3.5 1.3 1.3z" class="st8"/><path d="M288.9 30.1c0 .7-.6 1.3-1.3 1.3-.7 0-1.3-.6-1.3-1.3s.6-1.3 1.3-1.3c.7 0 1.3.6 1.3 1.3zM298.5 13.9c0 .7-.6 1.3-1.3 1.3-.7 0-1.3-.6-1.3-1.3s.6-1.3 1.3-1.3c.7 0 1.3.6 1.3 1.3zM307.8 16.3c0 .7-.6 1.3-1.3 1.3-.7 0-1.3-.6-1.3-1.3 0-.7.6-1.3 1.3-1.3.7 0 1.3.6 1.3 1.3z" class="st7"/><circle cx="318.9" cy="13.4" r="1.3" class="st7"/><path d="M334.3 16.3c0 .7-.6 1.3-1.3 1.3s-1.3-.6-1.3-1.3c0-.7.6-1.3 1.3-1.3s1.3.6 1.3 1.3z" class="st8"/><circle cx="336.2" cy="32" r="1.3" class="st7"/><path d="M349.6 33.2c0 .7-.6 1.3-1.3 1.3-.7 0-1.3-.6-1.3-1.3 0-.7.6-1.3 1.3-1.3.6-.1 1.3.5 1.3 1.3zM352.1 27.5c0 .7-.6 1.3-1.3 1.3-.7 0-1.3-.6-1.3-1.3 0-.7.6-1.3 1.3-1.3.7-.1 1.3.5 1.3 1.3zM358.2 28.3c0 .7-.6 1.3-1.3 1.3-.7 0-1.3-.6-1.3-1.3 0-.7.6-1.3 1.3-1.3.7-.1 1.3.5 1.3 1.3z" class="st7"/><circle cx="355.3" cy="38.1" r="1.3" class="st7"/><path d="M364.3 46.9c0 .7-.6 1.3-1.3 1.3-.7 0-1.3-.6-1.3-1.3 0-.7.6-1.3 1.3-1.3.7-.1 1.3.5 1.3 1.3z" class="st8"/><path d="M362.2 33.3c0 .7-.6 1.3-1.3 1.3-.7 0-1.3-.6-1.3-1.3 0-.7.6-1.3 1.3-1.3.7-.1 1.3.5 1.3 1.3z" class="st7"/><circle cx="370.7" cy="28" r="1.3" class="st7"/><path d="M369.7 23.2c0 .7-.6 1.3-1.3 1.3-.7 0-1.3-.6-1.3-1.3 0-.7.6-1.3 1.3-1.3.6 0 1.3.6 1.3 1.3zM376.6 19.8c0 .7-.6 1.3-1.3 1.3-.7 0-1.3-.6-1.3-1.3 0-.7.6-1.3 1.3-1.3.7-.1 1.3.5 1.3 1.3z" class="st7"/><circle cx="352.1" cy="18.2" r="1.3" class="st7"/><path d="M334.9 40.2c0 .7-.6 1.3-1.3 1.3-.7 0-1.3-.6-1.3-1.3 0-.7.6-1.3 1.3-1.3.7 0 1.3.6 1.3 1.3z" class="st7"/><circle cx="346" cy="45.5" r="1.3" class="st7"/><circle cx="343.9" cy="59.9" r="1.3" class="st7"/><path d="M337.8 65.7c0 .7-.6 1.3-1.3 1.3-.7 0-1.3-.6-1.3-1.3 0-.7.6-1.3 1.3-1.3.7 0 1.3.6 1.3 1.3zM343.6 73.7c0 .7-.6 1.3-1.3 1.3-.7 0-1.3-.6-1.3-1.3 0-.7.6-1.3 1.3-1.3.7-.1 1.3.5 1.3 1.3zM329 64.4c0 .7-.6 1.3-1.3 1.3-.7 0-1.3-.6-1.3-1.3s.6-1.3 1.3-1.3c.7-.1 1.3.5 1.3 1.3z" class="st7"/><circle cx="337.5" cy="77.4" r="1.3" class="st7"/><path d="M336.5 90.4c0 .7-.6 1.3-1.3 1.3s-1.3-.6-1.3-1.3c0-.7.6-1.3 1.3-1.3s1.3.6 1.3 1.3zM322.9 95.4c0 .7-.6 1.3-1.3 1.3-.7 0-1.3-.6-1.3-1.3 0-.7.6-1.3 1.3-1.3.7 0 1.3.6 1.3 1.3zM322.1 101.5c0 .7-.6 1.3-1.3 1.3-.7 0-1.3-.6-1.3-1.3s.6-1.3 1.3-1.3c.7 0 1.3.6 1.3 1.3zM326.4 109.8c0 .7-.6 1.3-1.3 1.3-.7 0-1.3-.6-1.3-1.3 0-.7.6-1.3 1.3-1.3.7-.1 1.3.5 1.3 1.3z" class="st7"/><circle cx="320.5" cy="114.9" r="1.3" class="st7"/><path d="M314.4 108.5c0 .7-.6 1.3-1.3 1.3-.7 0-1.3-.6-1.3-1.3 0-.7.6-1.3 1.3-1.3.7-.1 1.3.5 1.3 1.3zM319.2 126.8c0 .7-.6 1.3-1.3 1.3-.7 0-1.3-.6-1.3-1.3 0-.7.6-1.3 1.3-1.3.7-.1 1.3.5 1.3 1.3zM312.6 118.3c0 .7-.6 1.3-1.3 1.3-.7 0-1.3-.6-1.3-1.3 0-.7.6-1.3 1.3-1.3.7-.1 1.3.5 1.3 1.3zM310.1 102.6c0 .7-.6 1.3-1.3 1.3-.7 0-1.3-.6-1.3-1.3 0-.7.6-1.3 1.3-1.3.7 0 1.3.6 1.3 1.3z" class="st7"/><circle cx="302.7" cy="100.2" r="1.3" class="st7"/><path d="M300.1 92.3c0 .7-.6 1.3-1.3 1.3-.7 0-1.3-.6-1.3-1.3s.6-1.3 1.3-1.3c.7-.1 1.3.5 1.3 1.3zM287.6 103.7c0 .7-.6 1.3-1.3 1.3-.7 0-1.3-.6-1.3-1.3 0-.7.6-1.3 1.3-1.3.7-.1 1.3.5 1.3 1.3zM283.9 115.4c0 .7-.6 1.3-1.3 1.3-.7 0-1.3-.6-1.3-1.3s.6-1.3 1.3-1.3c.7-.1 1.3.5 1.3 1.3zM290 119.6c0 .7-.6 1.3-1.3 1.3-.7 0-1.3-.6-1.3-1.3 0-.7.6-1.3 1.3-1.3.7 0 1.3.6 1.3 1.3z" class="st7"/><path d="M276.7 100.8c0 .7-.6 1.3-1.3 1.3s-1.3-.6-1.3-1.3c0-.7.6-1.3 1.3-1.3s1.3.5 1.3 1.3z" class="st8"/><circle cx="274.6" cy="90.9" r="1.3" class="st7"/><path d="M254.9 91.5c0 .7-.6 1.3-1.3 1.3-.7 0-1.3-.6-1.3-1.3 0-.7.6-1.3 1.3-1.3.7-.1 1.3.5 1.3 1.3z" class="st7"/><circle cx="248" cy="104" r="1.3" class="st7"/><circle cx="236.6" cy="108.2" r="1.3" class="st7"/><path d="M236.1 101c0 .7-.6 1.3-1.3 1.3-.7 0-1.3-.6-1.3-1.3 0-.7.6-1.3 1.3-1.3.7 0 1.3.6 1.3 1.3z" class="st8"/><circle cx="226.5" cy="87.7" r="1.3" class="st7"/><circle cx="221.2" cy="82.4" r="1.3" class="st7"/><path d="M224.3 77.2c0 .7-.6 1.3-1.3 1.3-.7 0-1.3-.6-1.3-1.3 0-.7.6-1.3 1.3-1.3.7 0 1.3.6 1.3 1.3zM234.2 75.5c0 .7-.6 1.3-1.3 1.3-.7 0-1.3-.6-1.3-1.3 0-.7.6-1.3 1.3-1.3.7 0 1.3.6 1.3 1.3zM245.9 89.3c0 .7-.6 1.3-1.3 1.3-.7 0-1.3-.6-1.3-1.3 0-.7.6-1.3 1.3-1.3.7 0 1.3.6 1.3 1.3z" class="st7"/><circle cx="291.6" cy="74.2" r="1.3" class="st7"/><path d="M316 74.7c0 .7-.6 1.3-1.3 1.3s-1.3-.6-1.3-1.3.6-1.3 1.3-1.3 1.3.6 1.3 1.3z" class="st7"/><circle cx="318.1" cy="54.5" r="1.3" class="st8"/><path d="M299.6 56.9c0 .7-.6 1.3-1.3 1.3-.7 0-1.3-.6-1.3-1.3 0-.7.6-1.3 1.3-1.3.7 0 1.3.6 1.3 1.3z" class="st7"/><circle cx="308.8" cy="39.7" r="1.3" class="st7"/><circle cx="320.2" cy="25.6" r="1.3" class="st8"/><circle cx="287.3" cy="47.1" r="1.3" class="st7"/><path d="m175 86.4-9.7-20.5 5.8 4.5 3.9 16zm-8.7-19.2 7.3 15.5-3-12.1-4.3-3.4z" class="st7"/><path d="m163.9 77.6 6.9-7.3h.1l21.3-2.4-28.3 9.7zm7.1-6.9-5.7 6 23.3-8-17.6 2z" class="st7"/><path d="m173.1 85.5 17.4-17.8-.4 7.6-17 10.2zm17-16.7-14.5 14.8 14.2-8.5.3-6.3z" class="st7"/><path d="m156.6 86.8 7.9-10 10.6 8-18.5 2zm8-9.2L158 86l15.6-1.7-9-6.7zM203.2 80.7l1.5-5.9 11.1 3.7-12.6 2.2zm1.8-5.4-1.3 4.9 10.5-1.8-9.2-3.1z" class="st7"/><path d="m221.3 82.5-6.9-4.2L223 77l-1.7 5.5zm-5.7-3.9 5.5 3.4 1.4-4.4-6.9 1z" class="st7"/><path d="m212 91.1-.1-.2-9.5-10.9 19.3 2.1-9.7 9zm-8.6-10.6 8.7 10 8.7-8.1-17.4-1.9z" class="st7"/><path d="m215.2 106 6-24.5 7.3 22.4-13.3 2.1zm6-23-5.5 22.5 12.2-1.9-6.7-20.6z" class="st7"/><path d="m198.2 109.6 14-19.5 3.6 15.9-17.6 3.6zm13.7-18.1-12.3 17.2 15.5-3.2-3.2-14zM192.6 88.1l-2.9-13.2 13.6 5.2-10.7 8zm-2.4-12.5 2.6 11.9 9.6-7.2-12.2-4.7zM168.4 99.1 154 96.3l3.2-10.3 11.2 13.1zM154.5 96l12.8 2.4-10-11.6-2.8 9.2z" class="st7"/><path d="m174 113.8-20.2-6.7.2-11.3 20 18zm-19.7-7 18.1 6-17.9-16.2-.2 10.2z" class="st7"/><path d="m173.4 114.3-5.8-15.6v-.1l6.9-15.1-1.1 30.8zM168 98.8l5 13.5 1.1-26.7-6.1 13.2z" class="st7"/><path d="m165 122.5-11.7-16.2 20.4 6.8-8.7 9.4zm-10.1-15 10.2 14.1 7.6-8.2-17.8-5.9z" class="st7"/><path d="m164.5 122.3 8.7-9.3 8.9 6.8-17.6 2.5zm8.7-8.7-7.7 8.2 15.5-2.2-7.8-6zM199.2 109.5l-13.3-6.2 6.9-16 6.4 22.2zm-12.8-6.5 12.2 5.7-5.9-20.4-6.3 14.7z" class="st7"/><path d="m181.7 120-8.8-6.7 13.6-10.7-4.8 17.4zm-8.2-6.7 7.9 6 4.3-15.7-12.2 9.7z" class="st7"/><path d="m186.2 103.6-12.3-19.3 19.1 3.4-6.8 15.9zm-11.4-18.8 11.4 17.9 6.3-14.8-17.7-3.1zM189.2 125.3l-8.2-5.6 18.8-11.4-10.6 17zm-7.1-5.6 6.9 4.7 9-14.4-15.9 9.7z" class="st7"/><path d="m187.3 132.5 1.7-7.9h.2l17.5.8-19.4 7.1zm2-7.4-1.5 6.9 16.9-6.1-15.4-.8zM220.3 114.1l-5.3-8.7 23 7.7-17.7 1zm-4.4-8 4.6 7.6 15.4-.9-20-6.7z" class="st7"/><path d="m237.2 113.5-10-10.5 9.4 5 .6 5.5zm-8-9 7.5 7.8-.5-4.1-7-3.7z" class="st7"/><path d="m240.1 125.7-3.4-12.9 10.1-3-6.7 15.9zm-2.9-12.7 3 11.4 6-14-9 2.6zM205.5 126.1l-7.1-17.4 22.7 5-15.6 12.4zm-6.1-16.6 6.4 15.6 13.9-11.1-20.3-4.5z" class="st7"/><path d="m224.8 129.6-4.9-16.3 21 11.9-16.1 4.4zm-3.9-15.1 4.3 14.3 14.2-3.9-18.5-10.4z" class="st7"/><path d="M229.4 137.6 204.6 126l36.2-1.3-11.4 12.9zm-22.3-11.1 22.2 10.3 10.1-11.5-32.3 1.2z" class="st7"/><path d="m232 156.3-11.8-16.7v-.1l4.8-10.9 7 27.7zm-11.4-16.7 10.5 14.8-6.2-24.5-4.3 9.7zM242 165.2l-5.8-8.3 7.7-7.1-1.9 15.4zm-5.2-8.3 5 7.2 1.7-13.3-6.7 6.1z" class="st7"/><path d="m235.5 172.2.9-15.9 5.8 8.4-6.7 7.5zm1.2-14.7-.7 13.6 5.7-6.4-5-7.2zM194.2 142.6l-.1-.1-7-10.6.5.1 34 7.6-27.4 3zm-6.2-10.1 6.4 9.6 24.8-2.6-31.2-7z" class="st7"/><path d="m207.1 150.3-13-7.9 12-16.8 1 24.7zm-12.5-8 12 7.3-1-22.8-11 15.5z" class="st7"/><path d="m214.9 159.7-8.3-9.8 14.2-10.8-5.9 20.6zm-7.7-9.7 7.6 8.9 5.3-18.8-12.9 9.9z" class="st7"/><path d="m223.7 161.8-10.1-2.5 19.3-4.6-9.2 7.1zm-7.6-2.5 7.4 1.9 6.8-5.2-14.2 3.3z" class="st7"/><path d="m220 172.6 3.5-11.6 3.5 6.3-.1.1-6.9 5.2zm3.6-10.6-2.9 9.5 5.7-4.3-2.8-5.2zM195.3 152l-1.3-10 13.4 8.1-12.1 1.9zm-.7-9.2 1.1 8.7 10.6-1.7-11.7-7z" class="st7"/><path d="m216.7 159.7-25.5-1.5 4.2-6.8 21.3 8.3zm-24.5-2.1 20.7 1.2-17.3-6.8-3.4 5.6z" class="st7"/><path d="m222.3 172.6-25.8-3.9-5.4-11.5 31.2 15.4zm-25.4-4.4 21.6 3.3-26.2-12.9 4.6 9.6z" class="st7"/><path d="m196.3 176.9.2-8.7 13.2 4.9-13.4 3.8zm.6-8.2-.2 7.6 11.7-3.3-11.5-4.3z" class="st7"/><path d="m213.2 184.7-4.4-11.8 12-1.1-7.6 12.9zm-3.9-11.5 3.9 10.5 6.8-11.5-10.7 1z" class="st7"/><path d="m202 187.8-5.9-11.6 17.7 8-11.8 3.6zm-5.1-10.8 5.2 10.3 10.5-3.2-15.7-7.1zM208.5 174.5l-1.9-25.1 8.2 9.3-6.3 15.8zm-1.4-24 1.7 22.3 5.6-14-7.3-8.3zM172.2 70.5c0 .7-.6 1.3-1.3 1.3-.7 0-1.3-.6-1.3-1.3 0-.7.6-1.3 1.3-1.3.7-.1 1.3.5 1.3 1.3zM166 77.2c0 .7-.6 1.3-1.3 1.3s-1.3-.6-1.3-1.3c0-.7.6-1.3 1.3-1.3s1.3.5 1.3 1.3z" class="st7"/><circle cx="157.3" cy="86.7" r="1.3" class="st7"/><path d="M155.6 96.1c0 .7-.6 1.3-1.3 1.3-.7 0-1.3-.6-1.3-1.3 0-.7.6-1.3 1.3-1.3.7 0 1.3.6 1.3 1.3zM155.4 106.7c0 .7-.6 1.3-1.3 1.3-.7 0-1.3-.6-1.3-1.3 0-.7.6-1.3 1.3-1.3.7 0 1.3.6 1.3 1.3zM166.5 121.7c0 .7-.6 1.3-1.3 1.3-.7 0-1.3-.6-1.3-1.3 0-.7.6-1.3 1.3-1.3.7 0 1.3.6 1.3 1.3zM183.1 119.7c0 .7-.6 1.3-1.3 1.3-.7 0-1.3-.6-1.3-1.3 0-.7.6-1.3 1.3-1.3.7-.1 1.3.5 1.3 1.3zM190.7 124.7c0 .7-.6 1.3-1.3 1.3-.7 0-1.3-.6-1.3-1.3 0-.7.6-1.3 1.3-1.3.7 0 1.3.6 1.3 1.3z" class="st7"/><circle cx="188" cy="131.9" r="1.3" class="st8"/><path d="M195.8 142.5c0 .7-.6 1.3-1.3 1.3-.7 0-1.3-.6-1.3-1.3s.6-1.3 1.3-1.3c.7 0 1.3.6 1.3 1.3zM196.7 151.7c0 .7-.6 1.3-1.3 1.3-.7 0-1.3-.6-1.3-1.3 0-.7.6-1.3 1.3-1.3.7 0 1.3.6 1.3 1.3zM193.2 158c0 .7-.6 1.3-1.3 1.3-.7 0-1.3-.6-1.3-1.3 0-.7.6-1.3 1.3-1.3.7-.1 1.3.5 1.3 1.3z" class="st7"/><circle cx="197" cy="168.1" r="1.3" class="st7"/><path d="M198.1 176.4c0 .7-.6 1.3-1.3 1.3-.7 0-1.3-.6-1.3-1.3 0-.7.6-1.3 1.3-1.3.7 0 1.3.6 1.3 1.3zM203.6 187.8c0 .7-.6 1.3-1.3 1.3-.7 0-1.3-.6-1.3-1.3 0-.7.6-1.3 1.3-1.3.7-.1 1.3.5 1.3 1.3zM214.7 184.3c0 .7-.6 1.3-1.3 1.3-.7 0-1.3-.6-1.3-1.3 0-.7.6-1.3 1.3-1.3.7-.1 1.3.6 1.3 1.3z" class="st7"/><path d="M222.1 172.1c0 .7-.6 1.3-1.3 1.3-.7 0-1.3-.6-1.3-1.3s.6-1.3 1.3-1.3c.7-.1 1.3.5 1.3 1.3z" class="st8"/><path d="M227.9 167.7c0 .7-.6 1.3-1.3 1.3-.7 0-1.3-.6-1.3-1.3 0-.7.6-1.3 1.3-1.3.7-.1 1.3.5 1.3 1.3zM225.1 161.7c0 .7-.6 1.3-1.3 1.3-.7 0-1.3-.6-1.3-1.3 0-.7.6-1.3 1.3-1.3.7-.1 1.3.5 1.3 1.3zM232.9 155.4c0 .7-.6 1.3-1.3 1.3-.7 0-1.3-.6-1.3-1.3 0-.7.6-1.3 1.3-1.3.7 0 1.3.6 1.3 1.3z" class="st7"/><path d="M230.6 137.4c0 .7-.6 1.3-1.3 1.3-.7 0-1.3-.6-1.3-1.3s.6-1.3 1.3-1.3c.7 0 1.3.6 1.3 1.3z" class="st8"/><path d="M241.5 125c0 .7-.6 1.3-1.3 1.3-.7 0-1.3-.6-1.3-1.3 0-.7.6-1.3 1.3-1.3.7-.1 1.3.5 1.3 1.3z" class="st7"/><circle cx="246.6" cy="110.4" r="1.3" class="st7"/><path d="M238 113c0 .7-.6 1.3-1.3 1.3-.7 0-1.3-.6-1.3-1.3s.6-1.3 1.3-1.3c.7-.1 1.3.5 1.3 1.3zM229.3 103.7c0 .7-.6 1.3-1.3 1.3-.7 0-1.3-.6-1.3-1.3s.6-1.3 1.3-1.3c.6 0 1.3.6 1.3 1.3z" class="st7"/><path d="M213.6 90.6c0 .7-.6 1.3-1.3 1.3-.7 0-1.3-.6-1.3-1.3 0-.7.6-1.3 1.3-1.3.6-.1 1.3.5 1.3 1.3z" class="st8"/><path d="M216.3 78.8c0 .7-.6 1.3-1.3 1.3-.7 0-1.3-.6-1.3-1.3s.6-1.3 1.3-1.3c.7 0 1.3.6 1.3 1.3z" class="st7"/><circle cx="204.8" cy="75.8" r="1.3" class="st7"/><path d="M204.6 80.4c0 .7-.6 1.3-1.3 1.3s-1.3-.6-1.3-1.3c0-.7.6-1.3 1.3-1.3s1.3.6 1.3 1.3zM191.2 75.1c0 .7-.6 1.3-1.3 1.3s-1.3-.6-1.3-1.3c0-.7.6-1.3 1.3-1.3s1.3.6 1.3 1.3z" class="st7"/><circle cx="190.3" cy="68.2" r="1.3" class="st7"/><circle cx="174.3" cy="84.6" r="1.3" class="st7"/><path d="M194.4 87.6c0 .7-.6 1.3-1.3 1.3-.7 0-1.3-.6-1.3-1.3 0-.7.6-1.3 1.3-1.3.7-.1 1.3.5 1.3 1.3zM169.2 98.9c0 .7-.6 1.3-1.3 1.3-.7 0-1.3-.6-1.3-1.3s.6-1.3 1.3-1.3c.7-.1 1.3.5 1.3 1.3z" class="st7"/><circle cx="173.2" cy="113.2" r="1.3" class="st7"/><circle cx="186.1" cy="103" r="1.3" class="st7"/><circle cx="198.8" cy="109.3" r="1.3" class="st7"/><path d="M217 105.8c0 .7-.6 1.3-1.3 1.3-.7 0-1.3-.6-1.3-1.3 0-.7.6-1.3 1.3-1.3.7 0 1.3.6 1.3 1.3z" class="st7"/><circle cx="220.5" cy="113.9" r="1.3" class="st8"/><path d="M207.3 125.9c0 .7-.6 1.3-1.3 1.3-.7 0-1.3-.6-1.3-1.3s.6-1.3 1.3-1.3c.7-.1 1.3.5 1.3 1.3zM226.5 129.4c0 .7-.6 1.3-1.3 1.3s-1.3-.6-1.3-1.3c0-.7.6-1.3 1.3-1.3s1.3.5 1.3 1.3zM222.1 140c0 .7-.6 1.3-1.3 1.3-.7 0-1.3-.6-1.3-1.3 0-.7.6-1.3 1.3-1.3.7-.1 1.3.5 1.3 1.3z" class="st7"/><circle cx="206.7" cy="150.4" r="1.3" class="st7"/><circle cx="214.7" cy="159.1" r="1.3" class="st8"/><path d="M210.3 173.2c0 .7-.6 1.3-1.3 1.3-.7 0-1.3-.6-1.3-1.3 0-.7.6-1.3 1.3-1.3.7 0 1.3.6 1.3 1.3z" class="st7"/><circle cx="235.8" cy="171.8" r="1.3" class="st7"/><path d="M244.9 150.4c0 .7-.6 1.3-1.3 1.3-.7 0-1.3-.6-1.3-1.3s.6-1.3 1.3-1.3c.7-.1 1.3.5 1.3 1.3zM243.1 164.7c0 .7-.6 1.3-1.3 1.3s-1.3-.6-1.3-1.3c0-.7.6-1.3 1.3-1.3s1.3.5 1.3 1.3zM238 157.1c0 .7-.6 1.3-1.3 1.3-.7 0-1.3-.6-1.3-1.3s.6-1.3 1.3-1.3c.7-.1 1.3.5 1.3 1.3z" class="st7"/><path d="M216.1 106h-.4l-29.7-2.8.1-.2 7-15.6 23 18.6zm-29.8-3.1 29 2.7-22.2-17.9-6.8 15.2z" class="st9"/><path d="m220.9 140.3-15.1-14.1v-.1l9.9-20.7 5.2 34.9zm-14.8-14.2 14.5 13.5-5-33.4-9.5 19.9z" class="st9"/><path d="m237 157.3-30.5-6.8v-.1l-.8-24.5.2.2 31.1 31.2zm-30.2-7 29.5 6.6-30.3-30.4.8 23.8zM173.2 113.4 154 96l39.3-8.7-20.1 26.1zm-18.7-17.2 18.7 16.8 19.6-25.3-38.3 8.5z" class="st9"/><path d="m185.9 103.8 3.5-29.2 3.8 13-7.3 16.2zm3.6-28-3.1 26.5 6.6-14.7-3.5-11.8z" class="st9"/><path d="M206.2 126 173 113.2l13.2-10.4.1.1 19.9 23.1zm-32.8-12.8 32 12.3-19.3-22.3-12.7 10zM202.1 188.5l4.6-39.2 2.4 24.3-7 14.9zm4.6-37-4.2 35.6 6.3-13.5-2.1-22.1zM155.6 96.1c0 .7-.6 1.3-1.3 1.3-.7 0-1.3-.6-1.3-1.3 0-.7.6-1.3 1.3-1.3.7 0 1.3.6 1.3 1.3z" class="st9"/><path d="M203.6 187.8c0 .7-.6 1.3-1.3 1.3-.7 0-1.3-.6-1.3-1.3 0-.7.6-1.3 1.3-1.3.7-.1 1.3.5 1.3 1.3z" class="st9"/><path d="M191.2 75.1c0 .7-.6 1.3-1.3 1.3s-1.3-.6-1.3-1.3c0-.7.6-1.3 1.3-1.3s1.3.6 1.3 1.3z" class="st8"/><path d="M194.4 87.6c0 .7-.6 1.3-1.3 1.3-.7 0-1.3-.6-1.3-1.3 0-.7.6-1.3 1.3-1.3.7-.1 1.3.5 1.3 1.3z" class="st9"/><circle cx="173.2" cy="113.2" r="1.3" class="st8"/><circle cx="186.1" cy="103" r="1.3" class="st9"/><path d="M217 105.8c0 .7-.6 1.3-1.3 1.3-.7 0-1.3-.6-1.3-1.3 0-.7.6-1.3 1.3-1.3.7 0 1.3.6 1.3 1.3zM207.3 125.9c0 .7-.6 1.3-1.3 1.3-.7 0-1.3-.6-1.3-1.3s.6-1.3 1.3-1.3c.7-.1 1.3.5 1.3 1.3zM222.1 140c0 .7-.6 1.3-1.3 1.3-.7 0-1.3-.6-1.3-1.3 0-.7.6-1.3 1.3-1.3.7-.1 1.3.5 1.3 1.3z" class="st9"/><circle cx="206.7" cy="150.4" r="1.3" class="st9"/><path d="M243.1 164.7c0 .7-.6 1.3-1.3 1.3s-1.3-.6-1.3-1.3c0-.7.6-1.3 1.3-1.3s1.3.5 1.3 1.3z" class="st8"/><path d="M238 157.1c0 .7-.6 1.3-1.3 1.3-.7 0-1.3-.6-1.3-1.3s.6-1.3 1.3-1.3c.7-.1 1.3.5 1.3 1.3zM181.4 58l-7.8-16.8 6 1.8v.1l1.8 14.9zm-7.3-16.4 7 15-1.6-13.4-5.4-1.6zM195.2 63.9l-.6-9.7 5.9-12 .6.2-5.9 21.5zm0-9.6.4 5.9 4-15-4.4 9.1zM191.2 32.8v-.2l11.7-2.8 8.5 2.1-20.2.9zm11.7-2.8-10.4 2.5 17.3-.8-6.9-1.7z" class="st9"/><path d="m227.7 41.1-17.3-9.3 7.4-5.8 9.9 15.1zm-16.9-9.4 16.2 8.7-9.2-14.1-7 5.4zM244.3 60.1l-9.1-5-8.2-15.6 17.3 20.6zm-8.9-5.1 7.9 4.3-15.1-17.9 7.2 13.6z" class="st9"/><path d="m269.1 56.4-42.3-16.1 31.1 1.9 11.2 14.2zm-40.7-15.8 40 15.2-10.6-13.4-29.4-1.8z" class="st9"/><path d="m200.6 42.1 10-10.5h.1l17.1 9.2h-.4l-26.8 1.3zm10-10.2-9.4 9.9 25.7-1.2-16.3-8.7zM233.2 76.1l-13-14.9.2-.1 15.1-6.2v.2l-2.3 21zm-12.6-14.9 12.5 14.3 2.1-20.2-14.6 5.9z" class="st9"/><path d="M243.5 59.7 235 55l23.1-12.9-14.6 17.6zm-8-4.6 8 4.4L257.1 43l-21.6 12.1z" class="st9"/><path d="m260 70.1-16.8-10.6L269 56l-.1.2-8.9 13.9zm-16.1-10.4L260 69.8l8.6-13.5-24.7 3.4z" class="st9"/><path d="m265.7 86.8-.1-.3-5.7-16.7.1-.1 27.8-23.2-.3.6-21.8 39.7zM260.1 70l5.6 16.3 21.2-38.6L260.1 70zM248.2 104.3l-22.1-16.7 18.6 1.6v.1l3.5 15zm-21.3-16.4 20.9 15.8-3.4-14.2-17.5-1.6z" class="st9"/><path d="M236.1 108.2 254 90.9l-5.8 13.1-12.1 4.2zM253.2 92 237 107.7l10.9-3.8 5.3-11.9zM264 87.7l35-31.8-7.1 18.5L264 87.7zM297.5 58l-30.1 27.4 24-11.4 6.1-16zM313.9 75.2l13.7-10.9h.1l9.2 1.4-23 9.5zm13.8-10.7-12.3 9.8 20.6-8.5-8.3-1.3z" class="st9"/><path d="M321.5 95.6v-.1l-7-21.1 20.9 16-13.9 5.2zm-6.6-20.5 6.7 20.2 13.2-4.9-19.9-15.3z" class="st9"/><path d="m302.7 100.4-11.4-26.5.3.2 30.2 21.4-19.1 4.9zm-10.9-25.9 10.9 25.6 18.5-4.7-29.4-20.9zM288.8 119.9l-6.4-4.5v-.1l3.9-12.2.1.5 2.4 16.3zm-6.1-4.6 5.8 4-2.3-15.1-3.5 11.1z" class="st9"/><path d="m286.3 103.9-20.8-17.4.2-.1L315 74.5l-.3.3-28.4 29.1zm-20.4-17.3 20.3 16.9 28-28.6-48.3 11.7z" class="st9"/><path d="m321.6 95.8-.2-.3L298 56.8l29.9 7.5v.1l-6.3 31.4zm-23.1-38.7 23.1 38 6-30.7-29.1-7.3z" class="st9"/><path d="m342.8 74.1-15.6-9.9 9.4 1.4 6.2 8.5zm-14.6-9.5 13.6 8.6-5.4-7.4-8.2-1.2zM317.8 127.5l-.1-.2-6.6-9.1.1-.1 14.1-8.7-.1.3-7.4 17.8zm-6.4-9.2 6.4 8.7 7-16.9-13.4 8.2z" class="st9"/><path d="m181.3 58-.1-.3-7.3-16.5 9 4.6v.1L181.3 58zm-7.1-16.4 7 15.9 1.5-11.5-8.5-4.4zM201.1 42.3l-11.6-1.5v-.1l1.2-8 .1.1 10.3 9.5zm-11.4-1.6 11 1.4-9.8-9-1.2 7.6zM220.4 47.9l-9.8-16.3h.1l7.1-5.5v.1l2.6 21.7zm-9.6-16.3 9.3 15.6-2.5-20.9-6.8 5.3z" class="st10"/><path d="m200.7 42.3 10-10.8h.1l16.8 9.3h-.3l-26.6 1.5zm10-10.6-9.6 10.4 25.9-1.4-16.3-9z" class="st10"/><path d="m235.2 55.3-8.1-15h.1l14.5-4.6v.1l-6.5 19.5zm-7.9-14.9 7.8 14.5 6.3-18.9-14.1 4.4z" class="st10"/><path d="m269 56.3-42.2-15.7h.5l30.8 1.6L269 56.3zm-41.2-15.5L268.5 56l-10.4-13.6-30.3-1.6z" class="st10"/><path d="M203.6 51.3v-.2l24.2-10.7-7.4 7.1-16.8 3.8zM226.9 41l-22.6 10 15.9-3.5 6.7-6.5z" class="st10"/><path d="m209.8 61.2-6.4-10 17.1-3.8-10.7 13.8zm-6.1-9.9 6.1 9.6 10.3-13.3-16.4 3.7z" class="st10"/><path d="m195.1 62.8 5.8-20.9 2.7 9.3-8.5 11.6zm5.8-20.3L195.5 62l8-10.8-2.6-8.7zM189.4 55.6l-6.7-9.7 7-5.3-.3 15zm-6.5-9.7 6.3 9.2.3-14.2-6.6 5zM165.4 67.1l10.3-9.3 6.2-.3-.3.2-16.2 9.4zm10.3-9.2-9.1 8.2 14.6-8.5-5.5.3z" class="st10"/><path d="m175.5 58 7.6-12.1 6.4 9.5h-.1L175.5 58zm7.6-11.8-7.3 11.6 13.4-2.5-6.1-9.1z" class="st10"/><path d="m195.5 62.7-6.2-7.3.3-15.2 5.9 22.5zm-6.1-7.4 5.7 6.7-5.5-20.7-.2 14z" class="st10"/><path d="M189.3 55.4 183 46h.1l44.8-5.4-.6.2-38 14.6zm-6.1-9.3 6.1 9.1 37.3-14.4-43.4 5.3z" class="st10"/><path d="M227.5 40.9h-.2L190.5 33l27.3-6.9 9.7 14.8zm-36.3-8 36 7.7-9.4-14.4-26.6 6.7zM233.2 75.7l-.1-.1-12.6-14.2h.1l14.6-6.4v.1l-2 20.6zm-12.4-14.2 12.3 13.9 2-20.1-14.3 6.2z" class="st10"/><path d="M266.3 88.1 234.7 55l23.7-13.1.1.4 7.8 45.8zm-30.7-32.9 29.7 31.1-7.5-43.5-22.2 12.4zM291.6 74.6l-23.1-18.5h.2l29.6 1.1-6.7 17.4zM269 56.2l22.6 18.1 6.6-17.1-29.2-1z" class="st10"/><path d="m302.7 99.8-11.3-25.5.2.2 30.2 20.8-19.1 4.5zm-10.9-25.1 11 24.9 18.6-4.5-29.6-20.4z" class="st10"/><path d="m321.4 95.3.1-.2 15-30.1-1.1 25.4-14 4.9zm14.9-29.5L321.7 95l13.6-4.7 1-24.5z" class="st10"/><path d="m342.5 73.6-44.3-16.3v-.2l38.3 8.2 6 8.3zm-43.2-16.1 42.8 15.7-5.7-7.7-37.1-8zM265.9 87.5l-24.6-51.9 27.5 20.5-2.9 31.4zm-24.2-51.4 24 50.8 2.9-30.7-26.9-20.1z" class="st10"/><path d="m325.2 109.4-.2-.1-22.3-9.6-4.6-42.9 27.1 52.6zm-22.4-9.8 22.1 9.5-26.5-51.5 4.4 42zM248 104.2l-3.5-15h.1l8.9 2.1v.1l-5.5 12.8zm-3.3-14.8 3.4 14.2 5.2-12.2-8.6-2z" class="st10"/><path d="m244.7 89.4-52.4-1.6.5-.1 40.4-12.2 11.5 13.9zm-51.4-1.7 51.1 1.6-11.3-13.6-39.8 12z" class="st10"/><path d="m206 126.3-.3-.3-19.9-22.9 7-15.6.1.2 13.1 38.6zm-20-23.2 19.6 22.5L192.8 88l-6.8 15.1z" class="st10"/><path d="m205.6 126.2 10.2-20.4 32.5-1.9-.3.2-42.4 22.1zm10.3-20.3-10 19.9 41.7-21.8-31.7 1.9zM186.1 103.3h-.2L154.3 96l.2-.1 20.2-11.5 11.4 18.9zm-31.3-7.4 30.9 7.1-11-18.4-19.9 11.3z" class="st10"/><path d="m174.8 84.9-8.9-18.3 9.8-8.9v.2l-.9 27zm-8.7-18.3 8.6 17.6.9-26.2-9.5 8.6zM236.3 157.4l-29.5-7v-.1l-1.1-24.6.1.2 30.5 31.5zm-29.4-7.1 28.9 6.8-29.9-31 1 24.2z" class="st10"/><path d="m202.3 188.3-9.6-100.6h.2l14.1 62.7-4.7 37.9zM193 89l9.4 97.8 4.4-36.4L193 89zM258.1 42.4l-17.6-6.5h.4L351 27.7v.2l-92.9 14.5zM241.2 36l16.9 6.2 91-14.3L241.2 36z" class="st10"/><path d="m354.3 67.8-3.5-17.2 9.3 6.2-5.8 11zm-3-16.3 3.1 15.2 5.1-9.7-8.2-5.5z" class="st7"/><path d="m359.8 72.9-5.6-5.9-3.3-15.9.4-.1 8.5 21.9zm-5.3-6.1 4.1 4.3-7-17.8 2.9 13.5z" class="st7"/><path d="m348.4 80-1.3-7.9 8.4-5.8-7.1 13.7zm-.7-7.6 1 5.8 5.2-10-6.2 4.2z" class="st7"/><path d="m359 73.4.1-1.5-12.1.6 13-16.2-.5 15.2h.2l-.7 1.9zm.5-15.9L347.8 72l11.2-.5.5-14zM316.1 138.5l-.1-.2-8.8-17.9 15.1 13.8-6.2 4.3zm-7.6-16.4 7.8 15.8 5.4-3.7-13.2-12.1z" class="st7"/><path d="m324.5 141.3-8.6-3 1.9-12.2 6.7 15.2zm-8.1-3.2 7.4 2.6-5.7-13.1-1.7 10.5zM329.4 135.1l-.1-.2-3.8-7.4 11.7 4.8-7.8 2.8zm-3-6.9 3.3 6.3 6.5-2.4-9.8-3.9z" class="st7"/><path d="m329.7 134.9-.4-.2 10.2-27.9.4.1-2.6 11.4-7.6 16.6zm9.1-24.9-7.4 20.2 5.5-12 1.9-8.2z" class="st7"/><path d="m349.1 110.7-9.9-3 1.9-8.4 8 11.4zm-9.4-3.3 8.4 2.6-6.8-9.7-1.6 7.1z" class="st7"/><path d="m346.9 120.5-6.1-21.9 8.1 11.6-2 10.3zm-5.1-19.7 5 18 1.6-8.4-6.6-9.6zM345.4 137.7l-9.1-5.5 12.3-4.7-3.2 10.2zm-8.2-5.4 8 4.8 2.8-8.9-10.8 4.1z" class="st7"/><path d="m336.9 132.5-11.5-5.4 11.9-9.2-.4 14.6zm-10.8-5.5 10.4 4.9.4-13.2-10.8 8.3zM342.9 147.1l-21.5-6.6 29.9 2.5-8.4 4.1zm-16-5.6 16 4.9 6.3-3.1-22.3-1.8zM368.9 144.4l-21.6-17.1 14.3 4.5v.1l7.3 12.5zm-19.7-16 18.2 14.4-6.2-10.6-12-3.8z" class="st7"/><path d="m380.6 146.5-21.5-16.3 19.4 8.1 2.1 8.2zm-17.3-13.9 16.4 12.4-1.5-6.2-14.9-6.2z" class="st7"/><path d="m380.4 146-12.8-2.4 10.9-5.4 1.9 7.8zm-11.6-2.5 11.1 2-1.7-6.6-9.4 4.6zM368.2 175.3l-1.8-15.2 4.5-13.2-2.7 28.4zm-1.4-15.2 1.4 11.5 2.1-21.4-3.5 9.9z" class="st7"/><path d="m367.9 174.1 2.5-26.3 6.5 15-9 11.3zm2.8-24.8-2.3 23.5 8.1-10.1-5.8-13.4z" class="st7"/><path d="m381.6 174.4-15.8-14.7 11 2.8 4.8 11.9zm-14.3-13.9 13.3 12.4-4-10-9.3-2.4z" class="st7"/><path d="m356.6 165.3 3.9-9.7 6.5 4.5-10.4 5.2zm4.1-9.1-3.3 8.2 8.8-4.4-5.5-3.8z" class="st7"/><path d="m360.7 156.3-7.6-7.1 9.1-.4-1.5 7.5zm-6.6-6.8 6.4 6 1.3-6.4-7.7.4z" class="st7"/><path d="m357.6 166.2-8.5-11.7 4.7-5.8 3.8 17.5zm-7.8-11.7 6.6 9-3-13.5-3.6 4.5z" class="st7"/><path d="m345.6 171.4-6.5-10.5 10.7-6.7-4.2 17.2zm-6-10.4 5.8 9.4 3.8-15.4-9.6 6z" class="st7"/><path d="m350.5 182.5-5.3-11.8 12.2-6.3-6.9 18.1zm-4.8-11.6 4.7 10.5 6.2-16.2-10.9 5.7z" class="st7"/><path d="m353.3 190 3.5-25.5 11.6 8.9-15.1 16.6zm3.9-24.8-3.2 23.5 14-15.3-10.8-8.2z" class="st7"/><path d="m372.5 188.7-4.6-15.4 13.6.2-9 15.2zm-4.1-15.1 4.2 14 8.2-13.8-12.4-.2z" class="st7"/><path d="m362.8 194.6-9.9-5.4 20.4-1.3-10.5 6.7zm-8.5-5.1 8.5 4.6 9-5.7-17.5 1.1z" class="st7"/><path d="m353.6 189.7-3.4-7.8.2-.1 18.7-9-15.5 16.9zm-2.9-7.6 3 6.9 13.6-14.9-16.6 8zM331.8 175.7l-4-10.7 17.7 6.3-13.7 4.4zm-3.3-10.1 3.6 9.6 12.2-3.9-15.8-5.7z" class="st7"/><path d="m338.5 186.8-10.6-21.6.2-.1 11.4-4.5v.3l-1 25.9zm-10.1-21.4 9.7 19.8 1-24-10.7 4.2z" class="st7"/><path d="m326.7 186.4 1.4-20.8 17.1 5.6-18.5 15.2zm1.8-20.3-1.3 19.4 17.3-14.2-16-5.2z" class="st7"/><path d="m338.2 185.7-7.8-11.1 21.1 7.4-13.3 3.7zm-6.3-9.9 6.5 9.2 11-3.1-17.5-6.1z" class="st7"/><path d="m326.1 186.3 19.7-16.2-7.9 15.9-11.8.3zm17.9-13.9-16.2 13.3 9.7-.2 6.5-13.1zM359.2 202.2l3.4-8h.1l11.2-7.1-14.7 15.1zm3.8-7.7-2.5 5.9 10.8-11.2-8.3 5.3zM381.4 207.8l19.7-20.9 5.3 5.9-.2.1-24.8 14.9zm19.6-20.3L383.6 206l22.1-13.3-4.7-5.2z" class="st7"/><path d="m397.3 200.3 3.6-13.5 5.4 6-9 7.5zm3.8-12.7-3.1 11.6 7.7-6.4-4.6-5.2z" class="st7"/><path d="M331 134.8c0 .7-.6 1.3-1.3 1.3-.7 0-1.3-.6-1.3-1.3 0-.7.6-1.3 1.3-1.3.7-.1 1.3.5 1.3 1.3zM338.2 118.4c0 .7-.6 1.3-1.3 1.3-.7 0-1.3-.6-1.3-1.3s.6-1.3 1.3-1.3c.7-.1 1.3.5 1.3 1.3zM308.8 121.1c0 .7-.6 1.3-1.3 1.3-.7 0-1.3-.6-1.3-1.3 0-.7.6-1.3 1.3-1.3.7-.1 1.3.5 1.3 1.3z" class="st9"/><circle cx="324" cy="140.8" r="1.3" class="st9"/><path d="M346.6 137.4c0 .7-.6 1.3-1.3 1.3-.7 0-1.3-.6-1.3-1.3 0-.7.6-1.3 1.3-1.3.7-.1 1.3.6 1.3 1.3zM373.5 188.2c0 .7-.6 1.3-1.3 1.3-.7 0-1.3-.6-1.3-1.3 0-.7.6-1.3 1.3-1.3.7-.1 1.3.5 1.3 1.3z" class="st9"/><circle cx="376.5" cy="162.5" r="1.3" class="st9"/><path d="M369.6 173.2c0 .7-.6 1.3-1.3 1.3-.7 0-1.3-.6-1.3-1.3 0-.7.6-1.3 1.3-1.3.7 0 1.3.6 1.3 1.3zM346.6 170.9c0 .7-.6 1.3-1.3 1.3-.7 0-1.3-.6-1.3-1.3 0-.7.6-1.3 1.3-1.3.7 0 1.3.6 1.3 1.3zM384.1 206.7c0 .7-.6 1.3-1.3 1.3s-1.3-.6-1.3-1.3c0-.7.6-1.3 1.3-1.3s1.3.6 1.3 1.3zM349.7 78.7c0 .7-.6 1.3-1.3 1.3-.7 0-1.3-.6-1.3-1.3 0-.7.6-1.3 1.3-1.3.7-.1 1.3.5 1.3 1.3zM360.6 72c0 .7-.6 1.3-1.3 1.3s-1.3-.6-1.3-1.3c0-.7.6-1.3 1.3-1.3s1.3.6 1.3 1.3z" class="st9"/><circle cx="351" cy="51" r="1.3" class="st9"/><path d="M348.3 78.9v-.2l2.6-28.1 8.5 21.5-.1.1-11 6.7zm2.7-27.3-2.5 26.9L359 72l-8-20.4zM318 127.8l-11.1-5.9 3.9-4.3 7.2 10.2zm-10.7-5.9 9.9 5.2-6.4-9.1-3.5 3.9zM345.4 137.6h-.2l-15.7-2.7 7.4-16.8.1.2 8.4 19.3zm-15.5-2.9 15.2 2.6-8.1-18.6-7.1 16z" class="st9"/><path d="m323.9 141-6.2-14.7.3.2 11.8 8.2-.1.1-5.8 6.2zm-5.6-14 5.7 13.6 5.5-5.8-11.2-7.8z" class="st9"/><path d="m345.5 137.6-27.8-11 .3-.1 19-8.3v.1l8.5 19.3zm-27.2-11 26.7 10.5-8.2-18.7-18.5 8.2zM372.2 189.6l-4.3-17.8 9-10.3-4.7 28.1zm-3.6-17.6 3.5 14.7 3.9-23.1-7.4 8.4z" class="st9"/><path d="m372.3 188.4-.3-.2-27.3-17.5h.5l23 2.3v.1l4.1 15.3zm-26.6-17.3 26.2 16.8-3.8-14.5-22.4-2.3z" class="st9"/><path d="m368.2 173.4-23.7-2.4.6-.2 31.6-8.5-8.5 11.1zm-22.3-2.5 22.2 2.2 8-10.4-30.2 8.2zM167.4 66.7c0 .7-.6 1.3-1.3 1.3-.7 0-1.3-.6-1.3-1.3 0-.7.6-1.3 1.3-1.3.7 0 1.3.6 1.3 1.3zM182.7 57.5c0 .7-.6 1.3-1.3 1.3-.7 0-1.3-.6-1.3-1.3 0-.7.6-1.3 1.3-1.3.7-.1 1.3.5 1.3 1.3zM196.8 62.1c0 .7-.6 1.3-1.3 1.3s-1.3-.6-1.3-1.3c0-.7.6-1.3 1.3-1.3s1.3.5 1.3 1.3zM184.3 46.1c0 .7-.6 1.3-1.3 1.3-.7 0-1.3-.6-1.3-1.3s.6-1.3 1.3-1.3c.7-.1 1.3.5 1.3 1.3zM175.3 41.3c0 .7-.6 1.3-1.3 1.3-.7 0-1.3-.6-1.3-1.3 0-.7.6-1.3 1.3-1.3.7-.1 1.3.5 1.3 1.3zM180.9 43.1c0 .7-.6 1.3-1.3 1.3-.7 0-1.3-.6-1.3-1.3 0-.7.6-1.3 1.3-1.3.7 0 1.3.6 1.3 1.3zM202.1 42.3c0 .7-.6 1.3-1.3 1.3-.7 0-1.3-.6-1.3-1.3 0-.7.6-1.3 1.3-1.3.7 0 1.3.6 1.3 1.3zM205 51.4c0 .7-.6 1.3-1.3 1.3s-1.3-.6-1.3-1.3c0-.7.6-1.3 1.3-1.3s1.3.5 1.3 1.3zM196.3 54.3c0 .7-.6 1.3-1.3 1.3-.7 0-1.3-.6-1.3-1.3 0-.7.6-1.3 1.3-1.3.7-.1 1.3.5 1.3 1.3zM221.8 61.2c0 .7-.6 1.3-1.3 1.3-.7 0-1.3-.6-1.3-1.3 0-.7.6-1.3 1.3-1.3.7-.1 1.3.5 1.3 1.3zM211.9 31.7c0 .7-.6 1.3-1.3 1.3-.7 0-1.3-.6-1.3-1.3 0-.7.6-1.3 1.3-1.3.7 0 1.3.6 1.3 1.3z" class="st9"/><circle cx="202.9" cy="29.9" r="1.3" class="st9"/><circle cx="190.9" cy="33" r="1.3" class="st9"/><path d="M219.1 26.1c0 .7-.6 1.3-1.3 1.3-.7 0-1.3-.6-1.3-1.3 0-.7.6-1.3 1.3-1.3.7 0 1.3.6 1.3 1.3z" class="st9"/><circle cx="227.3" cy="40.7" r="1.3" class="st9"/><path d="M236.6 55.1c0 .7-.6 1.3-1.3 1.3-.7 0-1.3-.6-1.3-1.3 0-.7.6-1.3 1.3-1.3.7-.1 1.3.5 1.3 1.3zM244.9 59.6c0 .7-.6 1.3-1.3 1.3-.7 0-1.3-.6-1.3-1.3 0-.7.6-1.3 1.3-1.3.7-.1 1.3.5 1.3 1.3zM267.2 86.9c0 .7-.6 1.3-1.3 1.3s-1.3-.6-1.3-1.3c0-.7.6-1.3 1.3-1.3s1.3.6 1.3 1.3zM261.1 69.9c0 .7-.6 1.3-1.3 1.3-.7 0-1.3-.6-1.3-1.3 0-.7.6-1.3 1.3-1.3.7 0 1.3.6 1.3 1.3zM270.1 56.1c0 .7-.6 1.3-1.3 1.3s-1.3-.6-1.3-1.3c0-.7.6-1.3 1.3-1.3s1.3.6 1.3 1.3zM259.2 42.3c0 .7-.6 1.3-1.3 1.3-.7 0-1.3-.6-1.3-1.3 0-.7.6-1.3 1.3-1.3.7 0 1.3.6 1.3 1.3zM337.8 65.7c0 .7-.6 1.3-1.3 1.3-.7 0-1.3-.6-1.3-1.3 0-.7.6-1.3 1.3-1.3.7 0 1.3.6 1.3 1.3zM343.6 73.7c0 .7-.6 1.3-1.3 1.3-.7 0-1.3-.6-1.3-1.3 0-.7.6-1.3 1.3-1.3.7-.1 1.3.5 1.3 1.3zM329 64.4c0 .7-.6 1.3-1.3 1.3-.7 0-1.3-.6-1.3-1.3s.6-1.3 1.3-1.3c.7-.1 1.3.5 1.3 1.3zM336.5 90.4c0 .7-.6 1.3-1.3 1.3s-1.3-.6-1.3-1.3c0-.7.6-1.3 1.3-1.3s1.3.6 1.3 1.3zM322.9 95.4c0 .7-.6 1.3-1.3 1.3-.7 0-1.3-.6-1.3-1.3 0-.7.6-1.3 1.3-1.3.7 0 1.3.6 1.3 1.3zM326.4 109.8c0 .7-.6 1.3-1.3 1.3-.7 0-1.3-.6-1.3-1.3 0-.7.6-1.3 1.3-1.3.7-.1 1.3.5 1.3 1.3zM319.2 126.8c0 .7-.6 1.3-1.3 1.3-.7 0-1.3-.6-1.3-1.3 0-.7.6-1.3 1.3-1.3.7-.1 1.3.5 1.3 1.3zM312.6 118.3c0 .7-.6 1.3-1.3 1.3-.7 0-1.3-.6-1.3-1.3 0-.7.6-1.3 1.3-1.3.7-.1 1.3.5 1.3 1.3z" class="st9"/><circle cx="302.7" cy="100.2" r="1.3" class="st9"/><path d="M287.6 103.7c0 .7-.6 1.3-1.3 1.3-.7 0-1.3-.6-1.3-1.3 0-.7.6-1.3 1.3-1.3.7-.1 1.3.5 1.3 1.3zM283.9 115.4c0 .7-.6 1.3-1.3 1.3-.7 0-1.3-.6-1.3-1.3s.6-1.3 1.3-1.3c.7-.1 1.3.5 1.3 1.3zM290 119.6c0 .7-.6 1.3-1.3 1.3-.7 0-1.3-.6-1.3-1.3 0-.7.6-1.3 1.3-1.3.7 0 1.3.6 1.3 1.3zM254.9 91.5c0 .7-.6 1.3-1.3 1.3-.7 0-1.3-.6-1.3-1.3 0-.7.6-1.3 1.3-1.3.7-.1 1.3.5 1.3 1.3z" class="st9"/><circle cx="248" cy="104" r="1.3" class="st9"/><circle cx="236.6" cy="108.2" r="1.3" class="st9"/><circle cx="226.5" cy="87.7" r="1.3" class="st9"/><circle cx="221.2" cy="82.4" r="1.3" class="st9"/><path d="M234.2 75.5c0 .7-.6 1.3-1.3 1.3-.7 0-1.3-.6-1.3-1.3 0-.7.6-1.3 1.3-1.3.7 0 1.3.6 1.3 1.3zM245.9 89.3c0 .7-.6 1.3-1.3 1.3-.7 0-1.3-.6-1.3-1.3 0-.7.6-1.3 1.3-1.3.7 0 1.3.6 1.3 1.3z" class="st9"/><circle cx="291.6" cy="74.2" r="1.3" class="st9"/><path d="M316 74.7c0 .7-.6 1.3-1.3 1.3s-1.3-.6-1.3-1.3.6-1.3 1.3-1.3 1.3.6 1.3 1.3z" class="st8"/><path d="M299.6 56.9c0 .7-.6 1.3-1.3 1.3-.7 0-1.3-.6-1.3-1.3 0-.7.6-1.3 1.3-1.3.7 0 1.3.6 1.3 1.3z" class="st9"/><circle cx="287.3" cy="47.1" r="1.3" class="st9"/><path d="m317.9 127-6.8-8.8 14.2-8.9-7.4 17.7zm-6.5-8.7 6.4 8.2 6.9-16.6-13.3 8.4z" class="st10"/><path d="m345.2 137.5-27.6-10.8-6.9-8.8.5.3 34 19.1v.2zm-27.4-11 25.9 10.1-32-18 6.1 7.9z" class="st10"/><path d="m310.9 118.6.2-.4 10.5-23.3 3.6 14.8h-.1l-14.2 8.9zm10.6-22.9-10 22.3 13.4-8.4-3.4-13.9zM372.3 188.8l-.3-.2-27.3-17.8h.5l23.1 2.3 4 15.7zm-26.6-17.7 26.3 17.1-3.8-14.9-22.5-2.2z" class="st10"/><path d="M327.2 127.5c0 .7-.6 1.3-1.3 1.3s-1.3-.6-1.3-1.3c0-.7.6-1.3 1.3-1.3s1.3.5 1.3 1.3zM331 134.8c0 .7-.6 1.3-1.3 1.3-.7 0-1.3-.6-1.3-1.3 0-.7.6-1.3 1.3-1.3.7-.1 1.3.5 1.3 1.3z" class="st7"/><circle cx="336.7" cy="132.1" r="1.3" class="st7"/><path d="M338.2 118.4c0 .7-.6 1.3-1.3 1.3-.7 0-1.3-.6-1.3-1.3s.6-1.3 1.3-1.3c.7-.1 1.3.5 1.3 1.3z" class="st7"/><path d="M342.4 99.3c0 .7-.6 1.3-1.3 1.3s-1.3-.6-1.3-1.3c0-.7.6-1.3 1.3-1.3s1.3.6 1.3 1.3z" class="st8"/><path d="M341 107c0 .7-.6 1.3-1.3 1.3-.7 0-1.3-.6-1.3-1.3 0-.7.6-1.3 1.3-1.3.7-.1 1.3.5 1.3 1.3z" class="st7"/><path d="M348.1 119.8c0 .7-.6 1.3-1.3 1.3-.7 0-1.3-.6-1.3-1.3 0-.7.6-1.3 1.3-1.3.7 0 1.3.6 1.3 1.3z" class="st8"/><path d="M349.8 110.5c0 .7-.6 1.3-1.3 1.3-.7 0-1.3-.6-1.3-1.3 0-.7.6-1.3 1.3-1.3.7 0 1.3.6 1.3 1.3zM323.3 134.1c0 .7-.6 1.3-1.3 1.3s-1.3-.6-1.3-1.3c0-.7.6-1.3 1.3-1.3s1.3.6 1.3 1.3zM308.8 121.1c0 .7-.6 1.3-1.3 1.3-.7 0-1.3-.6-1.3-1.3 0-.7.6-1.3 1.3-1.3.7-.1 1.3.5 1.3 1.3z" class="st7"/><circle cx="316.3" cy="137.6" r="1.3" class="st7"/><circle cx="324" cy="140.8" r="1.3" class="st7"/><circle cx="342.7" cy="146.6" r="1.3" class="st7"/><path d="M351.4 143.3c0 .7-.6 1.3-1.3 1.3s-1.3-.6-1.3-1.3c0-.7.6-1.3 1.3-1.3s1.3.6 1.3 1.3zM346.6 137.4c0 .7-.6 1.3-1.3 1.3-.7 0-1.3-.6-1.3-1.3 0-.7.6-1.3 1.3-1.3.7-.1 1.3.6 1.3 1.3z" class="st7"/><circle cx="348" cy="127.9" r="1.3" class="st7"/><path d="M362.6 131.8c0 .7-.6 1.3-1.3 1.3-.7 0-1.3-.6-1.3-1.3 0-.7.6-1.3 1.3-1.3.7 0 1.3.6 1.3 1.3zM379.8 138.8c0 .7-.6 1.3-1.3 1.3-.7 0-1.3-.6-1.3-1.3 0-.7.6-1.3 1.3-1.3.7-.1 1.3.5 1.3 1.3zM381.1 145.8c0 .7-.6 1.3-1.3 1.3-.7 0-1.3-.6-1.3-1.3s.6-1.3 1.3-1.3c.7-.1 1.3.5 1.3 1.3z" class="st7"/><path d="M369.3 143.6c0 .7-.6 1.3-1.3 1.3-.7 0-1.3-.6-1.3-1.3 0-.7.6-1.3 1.3-1.3.7 0 1.3.6 1.3 1.3z" class="st8"/><path d="M372.2 148.6c0 .7-.6 1.3-1.3 1.3-.7 0-1.3-.6-1.3-1.3 0-.7.6-1.3 1.3-1.3.7-.1 1.3.5 1.3 1.3zM367.7 160.1c0 .7-.6 1.3-1.3 1.3-.7 0-1.3-.6-1.3-1.3s.6-1.3 1.3-1.3c.7-.1 1.3.5 1.3 1.3zM361.8 155.9c0 .7-.6 1.3-1.3 1.3-.7 0-1.3-.6-1.3-1.3 0-.7.6-1.3 1.3-1.3.7-.1 1.3.5 1.3 1.3z" class="st7"/><circle cx="362" cy="149.1" r="1.3" class="st7"/><path d="M355.1 149.2c0 .7-.6 1.3-1.3 1.3s-1.3-.6-1.3-1.3c0-.7.6-1.3 1.3-1.3s1.3.6 1.3 1.3z" class="st7"/><path d="M350.6 154.8c0 .7-.6 1.3-1.3 1.3-.7 0-1.3-.6-1.3-1.3 0-.7.6-1.3 1.3-1.3.7-.1 1.3.5 1.3 1.3z" class="st8"/><circle cx="339.3" cy="161" r="1.3" class="st7"/><path d="M330 165.7c0 .7-.6 1.3-1.3 1.3-.7 0-1.3-.6-1.3-1.3s.6-1.3 1.3-1.3c.7-.1 1.3.5 1.3 1.3z" class="st7"/><circle cx="327.4" cy="185.9" r="1.3" class="st7"/><circle cx="338.4" cy="185.7" r="1.3" class="st7"/><path d="M352 182.1c0 .7-.6 1.3-1.3 1.3-.7 0-1.3-.6-1.3-1.3 0-.7.6-1.3 1.3-1.3.7 0 1.3.6 1.3 1.3z" class="st8"/><path d="M355.1 189.3c0 .7-.6 1.3-1.3 1.3s-1.3-.6-1.3-1.3c0-.7.6-1.3 1.3-1.3s1.3.5 1.3 1.3z" class="st7"/><circle cx="362.8" cy="194.4" r="1.3" class="st7"/><path d="M373.5 188.2c0 .7-.6 1.3-1.3 1.3-.7 0-1.3-.6-1.3-1.3 0-.7.6-1.3 1.3-1.3.7-.1 1.3.5 1.3 1.3zM382.6 173.9c0 .7-.6 1.3-1.3 1.3-.7 0-1.3-.6-1.3-1.3 0-.7.6-1.3 1.3-1.3.7-.1 1.3.5 1.3 1.3z" class="st7"/><circle cx="376.5" cy="162.5" r="1.3" class="st7"/><path d="M369.6 173.2c0 .7-.6 1.3-1.3 1.3-.7 0-1.3-.6-1.3-1.3 0-.7.6-1.3 1.3-1.3.7 0 1.3.6 1.3 1.3zM358.5 164.9c0 .7-.6 1.3-1.3 1.3-.7 0-1.3-.6-1.3-1.3 0-.7.6-1.3 1.3-1.3.7-.1 1.3.5 1.3 1.3zM346.6 170.9c0 .7-.6 1.3-1.3 1.3-.7 0-1.3-.6-1.3-1.3 0-.7.6-1.3 1.3-1.3.7 0 1.3.6 1.3 1.3z" class="st7"/><path d="M332.9 175.3c0 .7-.6 1.3-1.3 1.3-.7 0-1.3-.6-1.3-1.3 0-.7.6-1.3 1.3-1.3.7-.1 1.3.5 1.3 1.3z" class="st8"/><path d="M361 200.9c0 .7-.6 1.3-1.3 1.3-.7 0-1.3-.6-1.3-1.3 0-.7.6-1.3 1.3-1.3.7 0 1.3.6 1.3 1.3zM384.1 206.7c0 .7-.6 1.3-1.3 1.3s-1.3-.6-1.3-1.3c0-.7.6-1.3 1.3-1.3s1.3.6 1.3 1.3z" class="st7"/><path d="M399 199.3c0 .7-.6 1.3-1.3 1.3-.7 0-1.3-.6-1.3-1.3 0-.7.6-1.3 1.3-1.3.7-.1 1.3.5 1.3 1.3z" class="st8"/><path d="M407.1 192.9c0 .7-.6 1.3-1.3 1.3-.7 0-1.3-.6-1.3-1.3 0-.7.6-1.3 1.3-1.3.6 0 1.3.6 1.3 1.3zM402.3 187.6c0 .7-.6 1.3-1.3 1.3-.7 0-1.3-.6-1.3-1.3 0-.7.6-1.3 1.3-1.3.7-.1 1.3.5 1.3 1.3zM349.7 78.7c0 .7-.6 1.3-1.3 1.3-.7 0-1.3-.6-1.3-1.3 0-.7.6-1.3 1.3-1.3.7-.1 1.3.5 1.3 1.3z" class="st7"/><path d="M360.6 72c0 .7-.6 1.3-1.3 1.3s-1.3-.6-1.3-1.3c0-.7.6-1.3 1.3-1.3s1.3.6 1.3 1.3z" class="st8"/><path d="M361 56.9c0 .7-.6 1.3-1.3 1.3-.7 0-1.3-.6-1.3-1.3 0-.7.6-1.3 1.3-1.3.7 0 1.3.6 1.3 1.3z" class="st7"/><circle cx="351" cy="51" r="1.3" class="st7"/><circle cx="354.6" cy="67" r="1.3" class="st7"/><path d="M348.8 72.5c0 .7-.6 1.3-1.3 1.3s-1.3-.6-1.3-1.3c0-.7.6-1.3 1.3-1.3s1.3.5 1.3 1.3z" class="st7"/><path d="M319.2 126.8c0 .7-.6 1.3-1.3 1.3-.7 0-1.3-.6-1.3-1.3 0-.7.6-1.3 1.3-1.3.7-.1 1.3.5 1.3 1.3zM312.6 118.3c0 .7-.6 1.3-1.3 1.3-.7 0-1.3-.6-1.3-1.3 0-.7.6-1.3 1.3-1.3.7-.1 1.3.5 1.3 1.3zM346.6 137.4c0 .7-.6 1.3-1.3 1.3-.7 0-1.3-.6-1.3-1.3 0-.7.6-1.3 1.3-1.3.7-.1 1.3.6 1.3 1.3zM373.5 188.2c0 .7-.6 1.3-1.3 1.3-.7 0-1.3-.6-1.3-1.3 0-.7.6-1.3 1.3-1.3.7-.1 1.3.5 1.3 1.3zM370.4 173.2c0 1.2-1 2.2-2.2 2.2s-2.2-1-2.2-2.2c0-1.2 1-2.2 2.2-2.2s2.2 1 2.2 2.2zM346.6 170.9c0 .7-.6 1.3-1.3 1.3-.7 0-1.3-.6-1.3-1.3 0-.7.6-1.3 1.3-1.3.7 0 1.3.6 1.3 1.3zM352.1 27.5c0 .7-.6 1.3-1.3 1.3-.7 0-1.3-.6-1.3-1.3 0-.7.6-1.3 1.3-1.3.7-.1 1.3.5 1.3 1.3zM155.6 96.1c0 .7-.6 1.3-1.3 1.3-.7 0-1.3-.6-1.3-1.3 0-.7.6-1.3 1.3-1.3.7 0 1.3.6 1.3 1.3zM204 187.8c0 1-.8 1.7-1.7 1.7-1 0-1.7-.8-1.7-1.7s.8-1.7 1.7-1.7c.9-.1 1.7.7 1.7 1.7zM194.4 87.6c0 .7-.6 1.3-1.3 1.3-.7 0-1.3-.6-1.3-1.3 0-.7.6-1.3 1.3-1.3.7-.1 1.3.5 1.3 1.3z" class="st10"/><circle cx="186.1" cy="103" r="1.3" class="st10"/><path d="M217 105.8c0 .7-.6 1.3-1.3 1.3-.7 0-1.3-.6-1.3-1.3 0-.7.6-1.3 1.3-1.3.7 0 1.3.6 1.3 1.3zM207.9 125.9c0 1-.9 1.9-1.9 1.9-1 0-1.9-.9-1.9-1.9 0-1 .9-1.9 1.9-1.9 1 0 1.9.8 1.9 1.9zM238 157.1c0 .7-.6 1.3-1.3 1.3-.7 0-1.3-.6-1.3-1.3s.6-1.3 1.3-1.3c.7-.1 1.3.5 1.3 1.3zM168.1 66.7c0 1.1-.9 2.1-2.1 2.1-1.1 0-2.1-.9-2.1-2.1 0-1.1.9-2.1 2.1-2.1 1.2 0 2.1 1 2.1 2.1zM183.2 57.5c0 1-.8 1.8-1.8 1.8s-1.8-.8-1.8-1.8.8-1.8 1.8-1.8 1.8.7 1.8 1.8zM196.8 62.1c0 .7-.6 1.3-1.3 1.3s-1.3-.6-1.3-1.3c0-.7.6-1.3 1.3-1.3s1.3.5 1.3 1.3zM184.3 46.1c0 .7-.6 1.3-1.3 1.3-.7 0-1.3-.6-1.3-1.3s.6-1.3 1.3-1.3c.7-.1 1.3.5 1.3 1.3zM202.1 42.3c0 .7-.6 1.3-1.3 1.3-.7 0-1.3-.6-1.3-1.3 0-.7.6-1.3 1.3-1.3.7 0 1.3.6 1.3 1.3zM205.6 51.4c0 1.1-.9 1.9-1.9 1.9-1.1 0-1.9-.9-1.9-1.9 0-1.1.9-1.9 1.9-1.9 1 0 1.9.8 1.9 1.9zM222.1 61.2c0 1-.8 1.7-1.7 1.7-1 0-1.7-.8-1.7-1.7 0-1 .8-1.7 1.7-1.7 1-.1 1.7.7 1.7 1.7zM211.9 31.7c0 .7-.6 1.3-1.3 1.3-.7 0-1.3-.6-1.3-1.3 0-.7.6-1.3 1.3-1.3.7 0 1.3.6 1.3 1.3z" class="st10"/><circle cx="190.9" cy="33" r="1.3" class="st10"/><path d="M219.1 26.1c0 .7-.6 1.3-1.3 1.3-.7 0-1.3-.6-1.3-1.3 0-.7.6-1.3 1.3-1.3.7 0 1.3.6 1.3 1.3z" class="st10"/><circle cx="227.3" cy="40.7" r="2.4" class="st10"/><path d="M267.2 86.9c0 .7-.6 1.3-1.3 1.3s-1.3-.6-1.3-1.3c0-.7.6-1.3 1.3-1.3s1.3.6 1.3 1.3zM259.2 42.3c0 .7-.6 1.3-1.3 1.3-.7 0-1.3-.6-1.3-1.3 0-.7.6-1.3 1.3-1.3.7 0 1.3.6 1.3 1.3zM336.5 90.4c0 .7-.6 1.3-1.3 1.3s-1.3-.6-1.3-1.3c0-.7.6-1.3 1.3-1.3s1.3.6 1.3 1.3zM322.9 95.4c0 .7-.6 1.3-1.3 1.3-.7 0-1.3-.6-1.3-1.3 0-.7.6-1.3 1.3-1.3.7 0 1.3.6 1.3 1.3zM304.5 100.2c0 1-.8 1.8-1.8 1.8s-1.8-.8-1.8-1.8.8-1.8 1.8-1.8 1.8.8 1.8 1.8zM221.2 47.5c0 .5-.4.9-.9.9s-.9-.4-.9-.9.4-.9.9-.9c.5-.1.9.4.9.9zM190.3 55.3c0 .5-.4.9-.9.9s-.9-.4-.9-.9.4-.9.9-.9c.5-.1.9.3.9.9zM176.1 41.4c0 1.1-.9 2-2 2s-2-.9-2-2 .9-2 2-2 2 .9 2 2zM176.7 58c0 .5-.4.9-.9.9s-.9-.4-.9-.9.4-.9.9-.9.9.4.9.9zM190.5 40.7c0 .5-.4.9-.9.9s-.9-.4-.9-.9.4-.9.9-.9.9.4.9.9z" class="st10"/><circle cx="209.9" cy="61.2" r=".9" class="st10"/><path d="M236.2 55.1c0 .5-.4.9-.9.9s-.9-.4-.9-.9.4-.9.9-.9.9.4.9.9zM234.1 75.6c0 .5-.4.9-.9.9s-.9-.4-.9-.9.4-.9.9-.9.9.4.9.9zM175.5 84.5c0 .5-.4.9-.9.9s-.9-.4-.9-.9.4-.9.9-.9.9.4.9.9zM245.5 89.3c0 .5-.4.9-.9.9s-.9-.4-.9-.9.4-.9.9-.9.9.4.9.9z" class="st10"/><circle cx="206.7" cy="150.6" r=".9" class="st10"/><path d="M242.1 36c0 .4-.3.7-.7.7-.4 0-.7-.3-.7-.7s.3-.7.7-.7c.4-.1.7.3.7.7zM269.5 56.1c0 .4-.3.7-.7.7s-.7-.3-.7-.7c0-.4.3-.7.7-.7s.7.3.7.7zM298.9 56.9c0 .4-.3.7-.7.7-.4 0-.7-.3-.7-.7 0-.4.3-.7.7-.7.4 0 .7.3.7.7zM337.2 65.7c0 .4-.3.7-.7.7-.4 0-.7-.3-.7-.7s.3-.7.7-.7c.3 0 .7.3.7.7zM343 73.7c0 .4-.3.7-.7.7-.4 0-.7-.3-.7-.7 0-.4.3-.7.7-.7.4-.1.7.3.7.7zM325.9 109.5c0 .4-.3.7-.7.7s-.7-.3-.7-.7c0-.4.3-.7.7-.7s.7.3.7.7zM292.4 74.5c0 .4-.3.7-.7.7-.4 0-.7-.3-.7-.7 0-.4.3-.7.7-.7.4-.1.7.3.7.7zM254.4 91.5c0 .4-.3.7-.7.7-.4 0-.7-.3-.7-.7s.3-.7.7-.7c.4-.1.7.2.7.7zM248.8 104c0 .4-.3.7-.7.7-.4 0-.7-.3-.7-.7s.3-.7.7-.7c.3-.1.7.3.7.7z" class="st10"/></g></svg>