<svg width="737" height="674" fill="none" viewBox="0 0 737 674"  xmlns="http://www.w3.org/2000/svg">
<path fill-rule="evenodd" clip-rule="evenodd" d="M737 674V36.1071C676.821 45.7357 638.306 55.3643 633.492 57.7714L705.707 0C544.427 14.4429 375.925 98.6929 262.788 170.907C180.945 221.457 125.58 267.193 118.358 279.229C94.2866 310.521 111.137 349.036 111.137 349.036C108.73 351.443 103.915 353.85 101.508 356.257C-21.2573 452.543 -38.1075 505.5 82.2508 630.671C79.8436 606.6 87.0651 587.343 101.508 570.493C168.909 493.464 390.368 491.057 570.906 565.679C566.091 560.864 498.691 471.8 412.033 433.286C412.033 433.286 558.87 457.357 669.599 572.9C698.485 609.007 722.557 642.707 737 674Z" fill="#0B5C8B"/>
</svg>
